{
  "accessors": [
    {
      "bufferView": 2,
      "componentType": 5126,
      "count": 41323,
      "max": [
        28.27604103088379,
        61.83665466308594,
        12.673688888549805
      ],
      "min": [
        -28.271799087524414,
        -0.006144550163298845,
        -12.93120002746582
      ],
      "type": "VEC3"
    },
    {
      "bufferView": 2,
      "byteOffset": 495876,
      "componentType": 5126,
      "count": 41323,
      "max": [
        0.999997615814209,
        1.0,
        1.0
      ],
      "min": [
        -0.9999783039093018,
        -0.9890096187591553,
        -0.9999905824661255
      ],
      "type": "VEC3"
    },
    {
      "bufferView": 1,
      "componentType": 5126,
      "count": 41323,
      "max": [
        0.9687467217445374,
        0.9847437739372253
      ],
      "min": [
        0.015256999991834164,
        0.015257000923156738
      ],
      "type": "VEC2"
    },
    {
      "bufferView": 0,
      "componentType": 5125,
      "count": 227346,
      "type": "SCALAR"
    },
    {
      "bufferView": 2,
      "byteOffset": 991752,
      "componentType": 5126,
      "count": 43565,
      "max": [
        28.255977630615234,
        61.83665466308594,
        12.658452987670898
      ],
      "min": [
        -28.252199172973633,
        -0.006144550163298845,
        -12.915900230407715
      ],
      "type": "VEC3"
    },
    {
      "bufferView": 2,
      "byteOffset": 1514532,
      "componentType": 5126,
      "count": 43565,
      "max": [
        0.9999788999557495,
        0.9999406337738037,
        0.9999908208847046
      ],
      "min": [
        -0.999997615814209,
        -0.9999788999557495,
        -1.0
      ],
      "type": "VEC3"
    },
    {
      "bufferView": 1,
      "byteOffset": 330584,
      "componentType": 5126,
      "count": 43565,
      "max": [
        0.9687467217445374,
        0.9847437739372253
      ],
      "min": [
        0.015256999991834164,
        0.015257000923156738
      ],
      "type": "VEC2"
    },
    {
      "bufferView": 0,
      "byteOffset": 909384,
      "componentType": 5125,
      "count": 234798,
      "type": "SCALAR"
    }
  ],
  "asset": {
    "extras": {
      "author": "khalilchahi99 (https://sketchfab.com/khalilchahi99)",
      "license": "CC-BY-4.0 (http://creativecommons.org/licenses/by/4.0/)",
      "source": "https://sketchfab.com/3d-models/tshirt-a88d6e25d67c4b0c91b9ea013e679870",
      "title": "Tshirt"
    },
    "generator": "Sketchfab-16.53.0",
    "version": "2.0"
  },
  "bufferViews": [
    {
      "buffer": 0,
      "byteLength": 1848576,
      "name": "floatBufferViews",
      "target": 34963
    },
    {
      "buffer": 0,
      "byteLength": 679104,
      "byteOffset": 1848576,
      "byteStride": 8,
      "name": "floatBufferViews",
      "target": 34962
    },
    {
      "buffer": 0,
      "byteLength": 2037312,
      "byteOffset": 2527680,
      "byteStride": 12,
      "name": "floatBufferViews",
      "target": 34962
    }
  ],
  "buffers": [
    {
      "byteLength": 4564992,
      "uri": "scene.bin"
    }
  ],
  "extensionsUsed": [
    "KHR_materials_specular"
  ],
  "images": [
    {
      "uri": "textures/material_baseColor.jpeg"
    },
    {
      "uri": "textures/material_specularf0.png"
    },
    {
      "uri": "textures/material_1_baseColor.jpeg"
    }
  ],
  "materials": [
    {
      "doubleSided": true,
      "extensions": {
        "KHR_materials_specular": {
          "specularColorFactor": [
            1.0,
            1.0,
            1.0
          ],
          "specularFactor": 1.0,
          "specularTexture": {
            "index": 1
          }
        }
      },
      "name": "material",
      "pbrMetallicRoughness": {
        "baseColorTexture": {
          "index": 0
        },
        "metallicFactor": 0.0
      }
    },
    {
      "doubleSided": true,
      "name": "material_1",
      "pbrMetallicRoughness": {
        "baseColorTexture": {
          "index": 2
        },
        "metallicFactor": 0.0
      }
    }
  ],
  "meshes": [
    {
      "name": "Object_0",
      "primitives": [
        {
          "attributes": {
            "NORMAL": 1,
            "POSITION": 0,
            "TEXCOORD_0": 2
          },
          "indices": 3,
          "material": 0,
          "mode": 4
        }
      ]
    },
    {
      "name": "Object_1",
      "primitives": [
        {
          "attributes": {
            "NORMAL": 5,
            "POSITION": 4,
            "TEXCOORD_0": 6
          },
          "indices": 7,
          "material": 1,
          "mode": 4
        }
      ]
    }
  ],
  "nodes": [
    {
      "children": [
        1
      ],
      "matrix": [
        1.0,
        0.0,
        0.0,
        0.0,
        0.0,
        2.220446049250313e-16,
        -1.0,
        0.0,
        0.0,
        1.0,
        2.220446049250313e-16,
        0.0,
        0.0,
        0.0,
        0.0,
        1.0
      ],
      "name": "Sketchfab_model"
    },
    {
      "children": [
        2
      ],
      "name": "root"
    },
    {
      "children": [
        3,
        5
      ],
      "matrix": [
        1.0,
        0.0,
        0.0,
        0.0,
        0.0,
        2.220446049250313e-16,
        1.0,
        0.0,
        0.0,
        -1.0,
        2.220446049250313e-16,
        0.0,
        0.0,
        0.0,
        0.0,
        1.0
      ],
      "name": "GLTF_SceneRootNode"
    },
    {
      "children": [
        4
      ],
      "matrix": [
        0.011306846514344215,
        0.0,
        0.0,
        0.0,
        0.0,
        0.011306844651699066,
        0.0,
        0.0,
        0.0,
        0.0,
        0.011306844651699066,
        0.0,
        0.0,
        0.0,
        0.0,
        1.0
      ],
      "name": "T_Shirt_exterieur_ext_0_0"
    },
    {
      "mesh": 0,
      "name": "Object_4"
    },
    {
      "children": [
        6
      ],
      "matrix": [
        0.011306846514344215,
        0.0,
        0.0,
        0.0,
        0.0,
        0.011306844651699066,
        0.0,
        0.0,
        0.0,
        0.0,
        0.011306844651699066,
        0.0,
        0.0,
        0.0,
        0.0,
        1.0
      ],
      "name": "T_Shirt_int_int_0_1"
    },
    {
      "mesh": 1,
      "name": "Object_6"
    }
  ],
  "samplers": [
    {
      "magFilter": 9729,
      "minFilter": 9987,
      "wrapS": 10497,
      "wrapT": 10497
    }
  ],
  "scene": 0,
  "scenes": [
    {
      "name": "Sketchfab_Scene",
      "nodes": [
        0
      ]
    }
  ],
  "textures": [
    {
      "sampler": 0,
      "source": 0
    },
    {
      "sampler": 0,
      "source": 1
    },
    {
      "sampler": 0,
      "source": 2
    }
  ]
}
