<svg viewBox="0 0 44 44" x="0" y="0" fill="none" xmlns="http://www.w3.org/2000/svg"><path id="Vector_3" data-node-id="1135:8915" d="M12.444,33.94c0.677,0 1.245,-0.22 1.704,-0.68c0.458,-0.46 0.687,-1.03 0.685,-1.7c-0.001,-0.68 -0.231,-1.25 -0.688,-1.71c-0.457,-0.45 -1.024,-0.68 -1.701,-0.68c-0.676,0 -1.243,0.23 -1.7,0.68c-0.458,0.46 -0.687,1.03 -0.688,1.71c-0.002,0.67 0.227,1.24 0.688,1.7c0.46,0.46 1.027,0.69 1.7,0.68zM12.444,24.39c0.677,0 1.245,-0.23 1.704,-0.69c0.458,-0.46 0.687,-1.02 0.685,-1.7c-0.001,-0.68 -0.231,-1.24 -0.688,-1.7c-0.457,-0.46 -1.024,-0.69 -1.701,-0.69c-0.676,0 -1.243,0.23 -1.7,0.69c-0.458,0.46 -0.687,1.02 -0.688,1.7c-0.002,0.68 0.227,1.24 0.688,1.7c0.46,0.46 1.027,0.69 1.7,0.69zM12.444,14.83c0.677,0 1.245,-0.23 1.704,-0.68c0.458,-0.46 0.687,-1.03 0.685,-1.71c-0.001,-0.67 -0.231,-1.24 -0.688,-1.7c-0.457,-0.46 -1.024,-0.68 -1.701,-0.68c-0.676,0 -1.243,0.22 -1.7,0.68c-0.458,0.46 -0.687,1.03 -0.688,1.7c-0.002,0.68 0.227,1.25 0.688,1.71c0.46,0.46 1.027,0.69 1.7,0.68zM19.611,33.94h14.333v-4.77h-14.333zM19.611,24.39h14.333v-4.78h-14.333zM19.611,14.83h14.333v-4.77h-14.333zM5.278,43.5c-1.314,0 -2.438,-0.47 -3.373,-1.4c-0.935,-0.94 -1.403,-2.06 -1.405,-3.38v-33.44c0,-1.32 0.468,-2.44 1.405,-3.38c0.936,-0.93 2.06,-1.4 3.373,-1.4h33.444c1.314,0 2.439,0.47 3.376,1.4c0.936,0.94 1.404,2.07 1.402,3.38v33.44c0,1.32 -0.467,2.44 -1.402,3.38c-0.935,0.93 -2.06,1.4 -3.376,1.4zM5.278,38.72h33.444v-33.44h-33.444z" fill="black" xmlns="http://www.w3.org/2000/svg"/></svg>