<svg viewBox="0 0 59.0928 59.1048" x="0" y="0" fill="none" xmlns="http://www.w3.org/2000/svg"><path id="Vector_2" data-node-id="1091:3662" d="M57.5928,29.5948v0.01v0.01c0,0.55 -0.16,1.1 -0.48,1.55c-0.32,0.45 -0.77,0.79 -1.29,0.98v0h-0.01l-16.71,6.08l-0.66,0.24l-0.24,0.66l-6.07,16.71v0c-0.2,0.52 -0.54,0.97 -1,1.28c-0.45,0.32 -0.99,0.49 -1.55,0.49c-0.55,0 -1.09,-0.17 -1.55,-0.49c-0.45,-0.31 -0.8,-0.76 -0.99,-1.28v0l-6.08,-16.73l-0.24,-0.66l-0.66,-0.24l-16.7,-6.05v0c-0.52,-0.2 -0.97,-0.54 -1.28,-1c-0.32,-0.45 -0.49,-1 -0.49,-1.55c0,-0.55 0.17,-1.1 0.49,-1.55l-1.23,-0.85l1.23,0.85c0.31,-0.46 0.76,-0.8 1.28,-1l16.72,-6.07l0.66,-0.24l0.24,-0.66l6.06,-16.71c0.19,-0.52 0.54,-0.97 0.99,-1.28l-0.85,-1.23l0.85,1.23c0.46,-0.32 1,-0.49 1.55,-0.49c0.56,0 1.1,0.17 1.55,0.49l0.86,-1.24l-0.86,1.24c0.46,0.31 0.8,0.76 1,1.28v0l6.07,16.73l0.24,0.66l0.66,0.24l16.71,6.06v0h0.01c0.52,0.19 0.97,0.53 1.29,0.98c0.32,0.45 0.48,1 0.48,1.55z" stroke="white" stroke-width="3" xmlns="http://www.w3.org/2000/svg"/></svg>