<svg viewBox="0 0 52.0171 52.0057" x="0" y="0" fill="none" xmlns="http://www.w3.org/2000/svg"><defs><clipPath id="clip2_1091_3636" xmlns="http://www.w3.org/2000/svg"><rect width="51.0301" height="51.0057" fill="white" transform="translate(0.48700000000008004, 0.5)"/></clipPath></defs><g id="Artboard 28 1" data-node-id="1135:8920" clip-path="url(#clip2_1091_3636)" xmlns="http://www.w3.org/2000/svg"><path id="Vector_5" data-node-id="1135:8921" d="M15.088,35.13v1.65c0.02,0.25 -0.012,0.5 -0.095,0.74c-0.083,0.24 -0.214,0.46 -0.385,0.65c-0.172,0.18 -0.38,0.33 -0.611,0.43c-0.232,0.1 -0.482,0.15 -0.734,0.15c-0.252,0.01 -0.501,-0.04 -0.733,-0.14c-0.231,-0.1 -0.439,-0.24 -0.611,-0.43c-0.172,-0.18 -0.304,-0.4 -0.387,-0.64c-0.083,-0.23 -0.115,-0.49 -0.094,-0.74v-1.67h-1.801c-0.243,0 -0.484,-0.04 -0.71,-0.13c-0.226,-0.09 -0.431,-0.22 -0.604,-0.39c-0.173,-0.17 -0.309,-0.38 -0.401,-0.6c-0.092,-0.23 -0.138,-0.47 -0.135,-0.71v-10.9c-0.007,-0.25 0.037,-0.49 0.128,-0.71c0.09,-0.23 0.227,-0.44 0.4,-0.61c0.174,-0.17 0.381,-0.3 0.608,-0.39c0.227,-0.09 0.47,-0.13 0.714,-0.12h6.984c0.317,-0.54 0.693,-1.04 1.119,-1.51c0.324,-0.21 0.708,-0.31 1.095,-0.29c0.901,0 1.533,0.66 1.752,1.78h18.008c0.168,-0.46 0.415,-0.89 0.73,-1.27c0.378,-0.29 0.835,-0.47 1.314,-0.51c1.704,0 3.383,0 5.086,0c1.704,0 1.898,0.46 2.19,1.83h1.753c0.246,-0.02 0.493,0.01 0.726,0.1c0.233,0.08 0.446,0.21 0.626,0.38c0.181,0.17 0.324,0.37 0.422,0.6c0.098,0.23 0.149,0.47 0.148,0.72v27.25c0.011,0.26 -0.031,0.51 -0.125,0.74c-0.094,0.24 -0.236,0.45 -0.418,0.62c-0.182,0.18 -0.399,0.31 -0.637,0.4c-0.238,0.08 -0.491,0.11 -0.742,0.09h-43.389c-1.461,0 -2.118,-0.65 -2.118,-2.09c0,-2.21 0,-4.4 0,-6.62c-0.034,-0.3 0,-0.6 0.098,-0.89c0.099,-0.28 0.261,-0.54 0.473,-0.76c0.213,-0.21 0.471,-0.38 0.755,-0.48c0.285,-0.1 0.588,-0.14 0.889,-0.11c9.32,0 18.665,0 27.985,0h0.73v-9.08h-14.601c-0.185,-0.02 -0.374,0.02 -0.53,0.13c-0.156,0.1 -0.271,0.25 -0.322,0.43c-0.316,0.69 -0.657,1.37 -1.022,2.02c-0.145,0.35 -0.395,0.64 -0.713,0.84c-0.318,0.19 -0.69,0.28 -1.063,0.26zM47.842,24.22h-36.356v7.3c1.339,0 2.628,0 3.918,0c0.108,-0.01 0.212,-0.05 0.304,-0.11c0.092,-0.06 0.171,-0.14 0.231,-0.23c0.366,-0.68 0.706,-1.38 1.047,-2.09c0.161,-0.38 0.434,-0.69 0.783,-0.91c0.349,-0.21 0.756,-0.31 1.164,-0.28h17.813c0.27,-0.03 0.544,0 0.801,0.09c0.258,0.09 0.492,0.23 0.685,0.42c0.194,0.19 0.342,0.43 0.435,0.68c0.092,0.26 0.126,0.53 0.099,0.8v10.73h9.076zM47.842,44.28h-40.055v3.57h40.055c0.011,-0.1 0.011,-0.21 0,-0.31z" fill="black"/><path id="Vector_6" data-node-id="1135:8922" d="M27.839,13.05v5.63h-3.626c0,-0.18 0,-0.37 0,-0.54v-8.32c-0.032,-0.36 0.04,-0.72 0.209,-1.04c0.168,-0.32 0.425,-0.59 0.74,-0.76c0.325,-0.18 0.696,-0.26 1.064,-0.22c0.369,0.03 0.719,0.18 1.005,0.41l3.747,2.43l1.679,-2.43c-1.411,-1.05 -2.847,-2.04 -4.185,-3.16c-0.374,-0.35 -0.817,-0.61 -1.3,-0.77c-0.482,-0.16 -0.993,-0.21 -1.499,-0.16c-0.813,-0.05 -1.63,-0.01 -2.433,0.12c-0.73,0.3 -1.217,1.12 -1.801,1.71c-0.584,0.58 -0.852,0.87 -1.314,1.29c-0.168,0.18 -0.371,0.32 -0.596,0.41c-0.225,0.1 -0.467,0.15 -0.711,0.14c-0.245,0 -0.486,-0.05 -0.709,-0.15c-0.223,-0.1 -0.423,-0.25 -0.588,-0.43c-1.046,-0.9 -1.971,-1.85 -2.92,-2.75c-0.199,-0.18 -0.459,-0.28 -0.73,-0.29c-1.071,0 -2.166,0 -3.237,0c-0.225,0 -0.445,0.07 -0.632,0.2l-5.184,3.84l1.655,2.43c1.29,-0.85 2.434,-1.7 3.772,-2.43c0.393,-0.25 0.847,-0.4 1.314,-0.41c0.433,0 0.849,0.16 1.162,0.46c0.313,0.3 0.498,0.71 0.517,1.14c0,3.07 0,6.16 0,9.25h-3.601v-5.57l-0.438,0.22c-0.73,0.48 -1.436,0.99 -2.191,1.46c-0.2,0.14 -0.427,0.24 -0.668,0.29c-0.241,0.06 -0.49,0.06 -0.732,0.01c-0.242,-0.05 -0.471,-0.14 -0.674,-0.28c-0.203,-0.14 -0.375,-0.32 -0.505,-0.53l-3.602,-5.41c-0.268,-0.37 -0.378,-0.84 -0.305,-1.29c0.073,-0.46 0.322,-0.87 0.695,-1.14c2.433,-1.85 4.867,-3.7 7.3,-5.5c0.348,-0.25 0.763,-0.39 1.193,-0.41h5.232c0.286,-0.01 0.57,0.04 0.835,0.15c0.264,0.11 0.502,0.27 0.698,0.48l2.238,2.29c0.755,-0.76 1.461,-1.46 2.142,-2.19c0.221,-0.25 0.496,-0.45 0.804,-0.57c0.308,-0.13 0.64,-0.18 0.972,-0.16c1.679,0 3.383,0 5.062,0c0.466,0.02 0.918,0.16 1.314,0.41c2.434,1.75 4.745,3.53 7.106,5.31c0.216,0.14 0.4,0.32 0.54,0.54c0.141,0.21 0.235,0.46 0.276,0.71c0.041,0.25 0.029,0.51 -0.036,0.76c-0.065,0.25 -0.182,0.49 -0.342,0.69c-1.144,1.72 -2.288,3.45 -3.456,5.16c-0.128,0.24 -0.309,0.45 -0.53,0.62c-0.221,0.16 -0.477,0.28 -0.747,0.33c-0.271,0.05 -0.55,0.05 -0.818,-0.02c-0.267,-0.07 -0.516,-0.2 -0.728,-0.37z" fill="black"/><path id="Vector_7" data-node-id="1135:8923" d="M46.042,32.4c0.004,0.54 -0.151,1.07 -0.448,1.52c-0.296,0.45 -0.72,0.81 -1.218,1.02c-0.497,0.21 -1.046,0.26 -1.577,0.16c-0.53,-0.1 -1.018,-0.36 -1.401,-0.74c-0.384,-0.38 -0.646,-0.87 -0.753,-1.4c-0.107,-0.52 -0.055,-1.07 0.151,-1.57c0.205,-0.5 0.555,-0.93 1.003,-1.23c0.449,-0.3 0.977,-0.46 1.517,-0.46c0.719,0 1.408,0.28 1.919,0.79c0.51,0.5 0.8,1.19 0.807,1.91z" fill="black"/></g></svg>