<svg viewBox="0 0 47 47" x="0" y="0" fill="none" xmlns="http://www.w3.org/2000/svg"><path id="Vector_8" data-node-id="1091:3700" d="M21.583,27.33c1.619,0 2.977,-0.55 4.087,-1.66c1.11,-1.11 1.66,-2.47 1.66,-4.09c0,-1.62 -0.55,-2.98 -1.66,-4.09c-1.11,-1.1 -2.468,-1.66 -4.087,-1.66c-1.618,0 -2.981,0.56 -4.089,1.66c-1.107,1.11 -1.661,2.47 -1.661,4.09c0,1.62 0.554,2.98 1.661,4.09c1.108,1.11 2.471,1.66 4.089,1.66zM33.91,37.56l-6.7,-6.71c-0.86,0.55 -1.76,0.96 -2.718,1.21c-0.958,0.26 -1.927,0.38 -2.909,0.38c-3.024,0 -5.59,-1.05 -7.697,-3.16c-2.107,-2.1 -3.162,-4.67 -3.164,-7.7c-0.001,-3.02 1.053,-5.59 3.164,-7.69c2.111,-2.11 4.677,-3.16 7.697,-3.17c3.017,0 5.587,1.05 7.697,3.17c2.12,2.11 3.17,4.67 3.16,7.69c0,0.98 -0.13,1.95 -0.41,2.91c-0.28,0.96 -0.69,1.87 -1.25,2.72l6.78,6.77zM5.611,46.5c-1.405,0 -2.608,-0.5 -3.608,-1.5c-1,-1 -1.501,-2.2 -1.503,-3.61v-10.22h5.111v10.22h10.222v5.11zM31.17,46.5v-5.11h10.22v-10.22h5.11v10.22c0,1.4 -0.5,2.61 -1.5,3.61c-1,1 -2.2,1.5 -3.61,1.5zM0.5,15.83v-10.22c0,-1.4 0.501,-2.61 1.503,-3.61c1.001,-1 2.204,-1.5 3.608,-1.5h10.222v5.11h-10.222v10.22zM41.39,15.83v-10.22h-10.22v-5.11h10.22c1.4,0 2.61,0.5 3.61,1.5c1,1 1.5,2.21 1.5,3.61v10.22z" fill="black" xmlns="http://www.w3.org/2000/svg"/></svg>