<svg viewBox="0 0 26.4796 34.9978" x="0" y="0" fill="none" xmlns="http://www.w3.org/2000/svg"><path id="Vector_2" data-node-id="1135:8087" d="M4.4716,1.49l2.74,-0.82c0.9,-0.28 1.88,-0.21 2.74,0.18c0.86,0.39 1.55,1.09 1.93,1.95l1.93,4.28c0.33,0.74 0.42,1.57 0.26,2.36c-0.16,0.8 -0.56,1.53 -1.16,2.08l-2.93,2.73c-0.39,0.37 -0.09,1.83 1.34,4.31c1.44,2.49 2.55,3.47 3.06,3.32l3.83,-1.18c0.78,-0.24 1.61,-0.22 2.38,0.04c0.77,0.25 1.44,0.75 1.92,1.41l2.73,3.79c0.56,0.76 0.81,1.7 0.72,2.64c-0.09,0.94 -0.51,1.82 -1.2,2.46l-2.11,2.01c-0.68,0.64 -1.52,1.09 -2.44,1.31c-0.91,0.21 -1.87,0.18 -2.77,-0.09c-4.42,-1.36 -8.52,-5.38 -12.35,-12.01c-3.84,-6.65 -5.29,-12.25 -4.28,-16.83c0.2,-0.92 0.65,-1.77 1.29,-2.46c0.65,-0.7 1.46,-1.21 2.37,-1.48z" fill="#6A6A45" xmlns="http://www.w3.org/2000/svg"/></svg>