<svg viewBox="0 0 1391 78.148" x="0" y="0" fill="none" xmlns="http://www.w3.org/2000/svg"><defs><clipPath id="clip5_1091_3636" xmlns="http://www.w3.org/2000/svg"><rect width="164.272" height="70.0695" fill="white" transform="translate(0.5, 4.039999999999964)"/></clipPath><clipPath id="clip6_1091_3636" xmlns="http://www.w3.org/2000/svg"><rect width="184" height="52.992" fill="white" transform="translate(271.772, 12.579999999999927)"/></clipPath><clipPath id="clip7_1091_3636" xmlns="http://www.w3.org/2000/svg"><rect width="114" height="45.98" fill="white" transform="translate(562.772, 16.089999999999918)"/></clipPath><clipPath id="clip8_1091_3636" xmlns="http://www.w3.org/2000/svg"><rect width="102.864" height="77.148" fill="white" transform="translate(1292.77, 0.5)"/></clipPath></defs><g id="Frame 758531925" data-node-id="1133:4618" xmlns="http://www.w3.org/2000/svg"><g id="fashionbox.default logo" data-node-id="1135:4657" opacity="0.2" clip-path="url(#clip5_1091_3636)"><g id="Group" data-node-id="1135:4658"><path id="Vector_18" data-node-id="1135:4659" d="M94.927,4.04v62.11l69.842,7.97v-0.03l-7.748,-70.05z" fill="black"/><g id="Group_2" data-node-id="1135:4660"><path id="Vector_19" data-node-id="1135:4661" fill-rule="evenodd" clip-rule="evenodd" d="M145.659,38.03l-4.134,7.31h-4.572l6.653,-10.48l-6.462,-10.18h4.545l3.97,7.19l3.997,-7.19h4.545l-6.407,10.18l6.598,10.48h-4.544z" fill="white"/><path id="Vector_20" data-node-id="1135:4662" fill-rule="evenodd" clip-rule="evenodd" d="M107.658,36.27h-3.422v5.51h3.422v3.65h-7.255v-9.16h-2.82v-3.3h2.82v-8.38h7.255v3.66h-3.422v4.72h3.422zM107.768,36.27h-0.11v-3.3h0.11c1.314,0 2.518,-1.2 2.518,-2.39c0,-1.38 -1.259,-2.33 -2.518,-2.33h-0.11v-3.66h0.11c5.092,0 6.406,4.07 6.406,5.93c0,0.96 -0.356,2.69 -2.135,3.83c1.916,0.54 3.285,2.45 3.285,4.85c0,1.44 -1.259,6.23 -7.502,6.23h-0.164v-3.65h0.11c2.053,0 3.312,-1.32 3.312,-2.7c0,-1.31 -0.958,-2.81 -3.312,-2.81z" fill="white"/><path id="Vector_21" data-node-id="1135:4663" fill-rule="evenodd" clip-rule="evenodd" d="M127.672,41.72c-3.724,0 -6.708,-3 -6.708,-6.71c0,-3.71 2.984,-6.7 6.708,-6.7v-4.07h-0.137c-5.914,0 -10.76,4.78 -10.76,10.77c0,5.93 4.846,10.78 10.76,10.78h0.137zM127.672,41.72v4.07c5.913,-0.06 10.704,-4.85 10.704,-10.78c0,-5.93 -4.791,-10.71 -10.704,-10.77v4.07c3.696,0 6.707,2.99 6.707,6.7c0,3.71 -3.011,6.71 -6.707,6.71z" fill="white"/></g><path id="Vector_22" data-node-id="1135:4664" d="M17.7482,35.08v5.84c-0.1916,0.83 -0.3011,1.55 -0.2738,2.18c0,0.49 0.0822,0.92 0.2464,1.27c0,0.03 0.0274,0.07 0.0274,0.1v1.57c-0.2738,-0.08 -0.5475,-0.21 -0.7939,-0.37c-0.5202,-0.34 -0.9309,-0.83 -1.2047,-1.48c-0.2737,-0.63 -0.4106,-1.4 -0.4106,-2.3c0,-0.66 0.0821,-1.38 0.2737,-2.17c0.2191,-0.78 0.4928,-1.59 0.9035,-2.43c0.3285,-0.74 0.7392,-1.47 1.232,-2.21zM17.7482,21.97c-0.219,-0.02 -0.438,-0.04 -0.6844,-0.04c-1.013,0 -1.9165,0.26 -2.6831,0.79c-0.7939,0.53 -1.5058,1.33 -2.1081,2.4c-0.6023,1.06 -1.1499,2.4 -1.6701,4.01l-0.7666,2.44h-2.8199l-0.1369,0.81h2.8199l-3.5865,16.27c-0.2738,1.24 -0.5202,2.3 -0.7392,3.12c-0.219,0.85 -0.4928,1.48 -0.794,1.92c-0.3011,0.41 -0.6844,0.63 -1.1498,0.63c-0.3012,0 -0.5202,-0.08 -0.6571,-0.19c-0.1369,-0.14 -0.2464,-0.3 -0.3012,-0.52c-0.0821,-0.19 -0.1369,-0.41 -0.219,-0.66c-0.0821,-0.24 -0.1916,-0.44 -0.3833,-0.57c-0.1643,-0.17 -0.3559,-0.22 -0.6023,-0.25c-0.2464,0 -0.438,0.11 -0.5749,0.25c-0.1369,0.16 -0.1917,0.38 -0.1917,0.68c0,0.58 0.219,1.01 0.6297,1.37c0.4107,0.36 1.0404,0.52 1.8617,0.52c0.8487,0 1.5606,-0.19 2.1629,-0.55c0.6023,-0.38 1.1225,-0.98 1.5606,-1.75c0.438,-0.79 0.8213,-1.81 1.2046,-3.01c0.3559,-1.21 0.7118,-2.63 1.0951,-4.29l2.9568,-12.97h3.2307l0.0821,-0.81h-3.1211l0.7392,-3.14c0.4654,-1.95 1.013,-3.4 1.6701,-4.38c0.657,-0.97 1.4236,-1.45 2.2997,-1.45c0.3286,0 0.6024,0.04 0.794,0.11c0.0274,0.02 0.0547,0.03 0.0821,0.05zM29.6577,43.07c-0.0547,0.18 -0.1095,0.38 -0.1095,0.6c0,0.25 0.0548,0.48 0.1095,0.7zM29.6577,40.41v0.47c-0.4654,1.68 -1.0677,2.97 -1.7248,3.86c-0.7392,0.95 -1.588,1.44 -2.4914,1.44c-0.6297,0 -1.1225,-0.17 -1.4511,-0.51c-0.3285,-0.34 -0.4928,-0.85 -0.4928,-1.5c0,-0.25 0.0274,-0.6 0.1095,-1.03c0.0548,-0.44 0.1643,-0.98 0.3286,-1.62c-0.6023,1.56 -1.3416,2.73 -2.1903,3.5c-0.8487,0.77 -1.8343,1.16 -2.9842,1.16c-0.3559,0 -0.6844,-0.05 -1.013,-0.14v-1.57c0.1643,0.31 0.3833,0.54 0.6297,0.72c0.2738,0.19 0.575,0.29 0.9309,0.29c0.6844,0 1.3415,-0.3 1.9438,-0.9c0.6024,-0.61 1.2047,-1.5 1.8344,-2.69c0.657,-1.25 1.1772,-2.44 1.5879,-3.55c0.4107,-1.12 0.7118,-2.11 0.9035,-2.98c0.1916,-0.88 0.2737,-1.58 0.2737,-2.11c0,-0.61 -0.1642,-1.09 -0.4654,-1.44c-0.2738,-0.35 -0.6844,-0.53 -1.2046,-0.54c-0.6845,0 -1.3963,0.36 -2.1081,1.05c-0.7119,0.71 -1.4237,1.75 -2.1629,3.14c-0.8213,1.63 -1.4511,3.09 -1.8617,4.37c-0.1095,0.38 -0.219,0.75 -0.3012,1.09v-5.84c0.0822,-0.11 0.1643,-0.22 0.2191,-0.32c0.657,-0.92 1.3415,-1.68 2.0533,-2.3c0.7119,-0.62 1.3963,-1.08 2.0808,-1.39c0.6844,-0.31 1.3141,-0.47 1.8617,-0.47c0.6297,0.01 1.1772,0.2 1.5879,0.58c0.438,0.38 0.7392,0.93 0.9035,1.63l0.4928,-1.77c0.0273,-0.1 0.0821,-0.17 0.1369,-0.21c0.0821,-0.04 0.1642,-0.06 0.2737,-0.06c0.4107,0 0.7392,0.05 0.9583,0.15c0.219,0.1 0.3285,0.24 0.3285,0.42c0,0.09 -0.0273,0.19 -0.0273,0.31c-0.0274,0.12 -0.0548,0.24 -0.0822,0.36l-2.6831,9.75c-0.1368,0.54 -0.2464,1.05 -0.3011,1.5c-0.0821,0.46 -0.1095,0.84 -0.1095,1.14c0,0.26 0.0821,0.46 0.219,0.61c0.1369,0.16 0.3012,0.23 0.5202,0.23c0.438,0 0.9035,-0.42 1.4236,-1.25c0.5476,-0.83 1.0952,-2.08 1.6701,-3.74zM20.1849,24.04c0,-0.4 -0.1369,-0.76 -0.4107,-1.07c-0.2464,-0.32 -0.6297,-0.57 -1.0951,-0.76c-0.2738,-0.11 -0.6023,-0.18 -0.9309,-0.24v0.79c0.1643,0.07 0.2738,0.16 0.356,0.27c0.0821,0.14 0.1642,0.29 0.219,0.47c0.0273,0.18 0.0821,0.37 0.1368,0.57c0.0822,0.25 0.2191,0.45 0.3833,0.59c0.1643,0.14 0.3286,0.21 0.5476,0.21c0.219,-0.01 0.4107,-0.09 0.5749,-0.25c0.1369,-0.16 0.2191,-0.36 0.2191,-0.58zM62.32,41.09l-0.438,-0.3c-0.466,0.97 -0.904,1.79 -1.314,2.44c-0.384,0.65 -0.767,1.15 -1.123,1.48c-0.383,0.33 -0.712,0.5 -1.068,0.5c-0.191,-0.01 -0.328,-0.07 -0.438,-0.21c-0.109,-0.13 -0.164,-0.31 -0.164,-0.52c0,-0.29 0.082,-0.76 0.274,-1.41c0.219,-0.66 0.493,-1.49 0.876,-2.52l0.931,-2.58c0.383,-1.07 0.684,-2.01 0.903,-2.83c0.219,-0.82 0.329,-1.53 0.329,-2.12c0,-0.75 -0.192,-1.34 -0.52,-1.76c-0.356,-0.43 -0.849,-0.65 -1.451,-0.66c-0.74,0 -1.424,0.41 -2.136,1.22c-0.712,0.8 -1.396,2.02 -2.053,3.64l0.547,0.24c0.603,-1.4 1.178,-2.43 1.753,-3.13c0.547,-0.69 1.012,-1.03 1.396,-1.03c0.164,0 0.301,0.07 0.41,0.22c0.11,0.13 0.165,0.33 0.165,0.59c0,0.33 -0.082,0.8 -0.274,1.4c-0.164,0.61 -0.411,1.34 -0.739,2.22l-1.178,3.21c-0.355,0.93 -0.629,1.79 -0.848,2.56c-0.192,0.76 -0.301,1.46 -0.301,2.1c0,0.72 0.164,1.28 0.52,1.68c0.328,0.39 0.821,0.59 1.423,0.59c0.849,0 1.643,-0.42 2.382,-1.25c0.74,-0.84 1.451,-2.09 2.136,-3.77zM62.566,23.87c-0.027,-0.27 -0.082,-0.51 -0.191,-0.72c-0.137,-0.21 -0.274,-0.38 -0.493,-0.5c-0.192,-0.13 -0.411,-0.18 -0.657,-0.18c-0.274,0 -0.493,0.05 -0.712,0.18c-0.192,0.12 -0.356,0.29 -0.493,0.5c-0.109,0.21 -0.164,0.45 -0.164,0.72c0,0.41 0.137,0.74 0.356,1c0.273,0.26 0.575,0.39 0.958,0.41c0.274,-0.01 0.493,-0.07 0.684,-0.19c0.219,-0.12 0.384,-0.29 0.521,-0.5c0.109,-0.21 0.164,-0.45 0.191,-0.72zM54.462,40.79l-0.52,-0.3c-0.657,1.5 -1.259,2.64 -1.807,3.39c-0.547,0.76 -1.04,1.13 -1.506,1.13c-0.1913,0 -0.3556,-0.07 -0.4651,-0.2c-0.1095,-0.13 -0.1642,-0.32 -0.1642,-0.57c0,-0.17 0,-0.36 0.0547,-0.58c0.0274,-0.23 0.1095,-0.47 0.1917,-0.76l1.7519,-5.53c0.274,-0.88 0.466,-1.63 0.575,-2.27c0.11,-0.64 0.164,-1.15 0.164,-1.51c0,-0.96 -0.219,-1.7 -0.657,-2.21c-0.438,-0.51 -1.04,-0.77 -1.8065,-0.78c-0.8214,0 -1.7249,0.46 -2.6557,1.35c-0.9309,0.9 -1.9439,2.24 -3.0116,4.02l3.696,-14.38l-4.9281,0.64l-0.1916,0.8c0.1643,-0.01 0.3012,-0.03 0.4107,-0.04c0.1369,-0.02 0.2464,-0.03 0.3559,-0.03c0.4928,0 0.8487,0.05 1.0677,0.17c0.2464,0.11 0.356,0.33 0.356,0.64c0,0.13 -0.0274,0.27 -0.0548,0.39c-0.0274,0.13 -0.0548,0.26 -0.0821,0.38l-5.4209,21.17h2.1902c0.5476,-2.36 1.1226,-4.42 1.807,-6.2c0.6571,-1.76 1.3416,-3.23 2.0534,-4.41c0.6844,-1.17 1.3963,-2.06 2.0807,-2.64c0.6845,-0.6 1.3142,-0.89 1.8891,-0.89c0.3012,0 0.5476,0.11 0.7116,0.32c0.165,0.22 0.247,0.52 0.247,0.92c0,0.24 -0.028,0.56 -0.11,0.98c-0.082,0.41 -0.1915,0.9 -0.3832,1.47l-1.7522,5.59c-0.1643,0.51 -0.3011,0.99 -0.3833,1.45c-0.1369,0.47 -0.1916,0.92 -0.1916,1.37c0,0.77 0.1643,1.35 0.4928,1.73c0.3285,0.38 0.8213,0.58 1.451,0.58c0.9305,0 1.7525,-0.43 2.4645,-1.29c0.739,-0.86 1.423,-2.16 2.08,-3.9zM29.6577,40.88c0.0548,-0.14 0.0821,-0.28 0.1369,-0.43l-0.1369,-0.04zM29.6577,44.37v-1.3l0.0274,-0.06c0.1095,-0.19 0.219,-0.34 0.3559,-0.45c0.1643,-0.11 0.3286,-0.17 0.4928,-0.17c0.2738,0.01 0.4928,0.12 0.6571,0.33c0.1642,0.2 0.2464,0.49 0.2464,0.85c0,0.15 -0.0274,0.31 -0.0548,0.5c-0.0273,0.18 -0.0547,0.37 -0.0547,0.57c0,0.25 0.1916,0.45 0.5202,0.63c0.3559,0.17 0.8213,0.27 1.4236,0.28c0.6297,-0.01 1.1773,-0.12 1.6153,-0.33c0.4655,-0.22 0.794,-0.51 1.0404,-0.9c0.219,-0.39 0.3559,-0.84 0.3559,-1.35c0,-0.49 -0.0821,-0.94 -0.2464,-1.36c-0.1369,-0.41 -0.3559,-0.82 -0.6297,-1.22c-0.2464,-0.4 -0.5475,-0.81 -0.8761,-1.25c-0.438,-0.55 -0.794,-1.07 -1.1499,-1.54c-0.3285,-0.49 -0.6023,-0.98 -0.8213,-1.47c-0.1917,-0.48 -0.3012,-1.01 -0.3012,-1.57c0,-0.75 0.1917,-1.42 0.5476,-2.02c0.3833,-0.6 0.8761,-1.07 1.5058,-1.43c0.6297,-0.35 1.3689,-0.53 2.1629,-0.54c0.6023,0.01 1.1225,0.11 1.5605,0.3c0.4381,0.19 0.7666,0.43 0.9856,0.73c0.2465,0.3 0.3559,0.62 0.3559,0.95c0,0.31 -0.0821,0.57 -0.2464,0.74c-0.1369,0.17 -0.3559,0.26 -0.657,0.26c-0.2464,0 -0.4381,-0.08 -0.575,-0.23c-0.1643,-0.16 -0.2464,-0.37 -0.2464,-0.64c0,-0.12 0.0274,-0.23 0.0274,-0.33c0.0274,-0.1 0.0274,-0.21 0.0274,-0.3c0,-0.23 -0.1095,-0.42 -0.3559,-0.58c-0.2191,-0.17 -0.575,-0.26 -1.0404,-0.26c-0.4654,0 -0.8761,0.1 -1.232,0.29c-0.3559,0.19 -0.6297,0.45 -0.8214,0.78c-0.219,0.33 -0.3011,0.71 -0.3011,1.13c0,0.37 0.0821,0.73 0.2464,1.08c0.1916,0.35 0.4107,0.73 0.7118,1.11c0.2738,0.39 0.6023,0.83 0.9583,1.3c0.438,0.59 0.8213,1.15 1.1498,1.68c0.3286,0.53 0.6024,1.05 0.7666,1.57c0.1917,0.52 0.2738,1.06 0.2738,1.61c0,0.85 -0.219,1.61 -0.6023,2.28c-0.4107,0.66 -0.9856,1.18 -1.7248,1.56c-0.7119,0.38 -1.588,0.57 -2.5736,0.58c-0.7666,-0.01 -1.4236,-0.12 -1.9438,-0.33c-0.5476,-0.21 -0.9583,-0.51 -1.232,-0.89c-0.1369,-0.18 -0.2465,-0.38 -0.3286,-0.59zM69.027,30.93v1.05c-0.054,0.06 -0.136,0.13 -0.191,0.19c-0.603,0.61 -1.15,1.5 -1.67,2.69c-0.301,0.71 -0.575,1.44 -0.794,2.16c-0.219,0.73 -0.411,1.44 -0.575,2.12c-0.137,0.69 -0.247,1.32 -0.329,1.92c-0.082,0.58 -0.109,1.1 -0.109,1.53c0,0.95 0.191,1.68 0.602,2.19c0.383,0.5 0.958,0.76 1.643,0.77c0.52,0 0.985,-0.16 1.423,-0.46v0.85c-0.492,0.16 -1.013,0.24 -1.533,0.24c-0.903,-0.01 -1.67,-0.2 -2.299,-0.59c-0.63,-0.39 -1.123,-0.96 -1.452,-1.7c-0.328,-0.73 -0.492,-1.62 -0.492,-2.66c0,-1.29 0.191,-2.55 0.575,-3.79c0.41,-1.23 0.985,-2.41 1.752,-3.52c0.493,-0.72 1.04,-1.34 1.615,-1.84c0.575,-0.49 1.177,-0.87 1.78,-1.12zM91.916,41.02l-0.493,-0.3c-0.685,1.52 -1.314,2.67 -1.889,3.44c-0.575,0.77 -1.123,1.15 -1.643,1.15c-0.192,0 -0.356,-0.07 -0.493,-0.22c-0.109,-0.14 -0.164,-0.35 -0.164,-0.61c0,-0.11 0,-0.28 0.055,-0.52c0.054,-0.24 0.109,-0.54 0.219,-0.89l2.108,-6.87c0.164,-0.47 0.246,-0.91 0.328,-1.33c0.055,-0.41 0.11,-0.8 0.11,-1.15c0,-0.65 -0.11,-1.21 -0.329,-1.68c-0.219,-0.47 -0.492,-0.83 -0.876,-1.08c-0.383,-0.26 -0.821,-0.39 -1.341,-0.39c-0.959,0 -1.972,0.55 -3.012,1.65c-1.04,1.1 -2.053,2.74 -3.066,4.92c0.383,-1.68 0.575,-2.99 0.575,-3.92c0,-0.87 -0.165,-1.53 -0.466,-1.98c-0.301,-0.45 -0.739,-0.67 -1.341,-0.67c-0.931,0 -1.78,0.47 -2.546,1.41c-0.767,0.94 -1.451,2.36 -2.109,4.25l0.575,0.2c0.63,-1.59 1.232,-2.78 1.753,-3.59c0.52,-0.79 1.067,-1.2 1.56,-1.2c0.247,0 0.383,0.08 0.493,0.24c0.109,0.15 0.164,0.4 0.164,0.73c0,0.31 -0.027,0.79 -0.109,1.45c-0.082,0.65 -0.192,1.45 -0.384,2.41c-0.191,0.95 -0.465,2.03 -0.821,3.25l-1.725,5.99h2.273l0.848,-2.84c0.219,-0.68 0.411,-1.38 0.63,-2.11c0.219,-0.73 0.493,-1.48 0.767,-2.26c0.301,-0.78 0.684,-1.56 1.095,-2.37c0.41,-0.81 0.931,-1.62 1.533,-2.44c0.52,-0.73 1.04,-1.26 1.506,-1.63c0.493,-0.37 0.931,-0.55 1.369,-0.55c0.328,0 0.602,0.12 0.766,0.34c0.192,0.23 0.274,0.56 0.274,1c0,0.3 -0.027,0.67 -0.11,1.1c-0.082,0.44 -0.219,0.94 -0.41,1.51l-1.725,5.33c-0.192,0.56 -0.329,1.09 -0.465,1.58c-0.11,0.49 -0.165,0.97 -0.192,1.43c0.027,0.78 0.192,1.37 0.548,1.76c0.328,0.41 0.821,0.61 1.478,0.62c0.821,0 1.561,-0.31 2.245,-0.93c0.684,-0.61 1.314,-1.55 1.834,-2.79zM69.027,45.94v-0.85c0.11,-0.07 0.219,-0.15 0.329,-0.24c0.548,-0.46 1.013,-1.15 1.424,-2.05c0.328,-0.73 0.602,-1.48 0.848,-2.24c0.247,-0.75 0.438,-1.49 0.603,-2.22c0.164,-0.73 0.301,-1.42 0.383,-2.06c0.082,-0.64 0.11,-1.21 0.11,-1.72c0,-1.09 -0.165,-1.91 -0.521,-2.46c-0.328,-0.56 -0.848,-0.83 -1.533,-0.83c-0.547,0 -1.095,0.24 -1.643,0.71v-1.05c0.603,-0.24 1.178,-0.36 1.753,-0.36c0.821,0.01 1.505,0.23 2.135,0.69c0.602,0.45 1.068,1.08 1.396,1.89c0.329,0.82 0.521,1.78 0.521,2.88c0,1.32 -0.219,2.61 -0.63,3.85c-0.411,1.25 -1.013,2.44 -1.834,3.55c-0.63,0.88 -1.397,1.55 -2.218,2.03c-0.356,0.21 -0.739,0.37 -1.123,0.48z" fill="black"/><path id="Vector_23" data-node-id="1135:4665" d="M91.916,41.02l-0.493,-0.3c-0.685,1.52 -1.314,2.67 -1.889,3.44c-0.575,0.77 -1.123,1.15 -1.643,1.15c-0.192,0 -0.356,-0.07 -0.493,-0.22c-0.109,-0.14 -0.164,-0.35 -0.164,-0.61c0,-0.11 0.027,-0.28 0.055,-0.52c0.054,-0.24 0.109,-0.54 0.219,-0.89l2.108,-6.87c0.164,-0.47 0.246,-0.91 0.328,-1.33c0.055,-0.41 0.083,-0.8 0.083,-1.15c0,-0.65 -0.083,-1.21 -0.302,-1.68c-0.219,-0.47 -0.492,-0.83 -0.876,-1.08c-0.383,-0.26 -0.821,-0.39 -1.341,-0.39c-0.959,0 -1.944,0.55 -3.012,1.65c-1.04,1.1 -2.053,2.74 -3.066,4.92c0.383,-1.68 0.575,-2.99 0.575,-3.92c0,-0.87 -0.165,-1.53 -0.466,-1.98c-0.301,-0.45 -0.739,-0.67 -1.341,-0.67c-0.931,0 -1.78,0.47 -2.546,1.41c-0.74,0.94 -1.451,2.36 -2.109,4.25l0.575,0.2c0.63,-1.59 1.232,-2.78 1.753,-3.59c0.52,-0.79 1.04,-1.2 1.588,-1.2c0.219,0 0.355,0.08 0.465,0.24c0.109,0.15 0.164,0.4 0.164,0.74c0,0.3 -0.027,0.78 -0.109,1.44c-0.082,0.65 -0.192,1.45 -0.384,2.41c-0.191,0.95 -0.465,2.03 -0.821,3.25l-1.725,5.99h2.273l0.848,-2.84c0.192,-0.68 0.411,-1.38 0.63,-2.11c0.219,-0.73 0.493,-1.48 0.767,-2.26c0.301,-0.78 0.657,-1.56 1.095,-2.37c0.41,-0.81 0.931,-1.62 1.533,-2.44c0.52,-0.73 1.04,-1.26 1.506,-1.63c0.493,-0.37 0.931,-0.55 1.369,-0.55c0.328,0 0.602,0.12 0.766,0.34c0.192,0.23 0.274,0.56 0.274,1c0,0.3 -0.027,0.67 -0.11,1.1c-0.082,0.44 -0.219,0.94 -0.41,1.51l-1.725,5.33c-0.192,0.56 -0.329,1.09 -0.465,1.58c-0.11,0.49 -0.165,0.97 -0.192,1.43c0.027,0.78 0.192,1.37 0.548,1.77c0.328,0.4 0.821,0.6 1.478,0.61c0.821,0 1.561,-0.31 2.245,-0.93c0.712,-0.61 1.314,-1.55 1.834,-2.79zM72.724,34.56c0,0.51 -0.028,1.08 -0.11,1.72c-0.082,0.64 -0.219,1.33 -0.383,2.06c-0.165,0.73 -0.356,1.47 -0.603,2.22c-0.246,0.76 -0.52,1.51 -0.848,2.24c-0.411,0.9 -0.876,1.59 -1.424,2.05c-0.548,0.46 -1.122,0.7 -1.725,0.7c-0.712,-0.01 -1.287,-0.27 -1.67,-0.77c-0.411,-0.51 -0.602,-1.24 -0.602,-2.19c0,-0.43 0.027,-0.95 0.109,-1.53c0.082,-0.6 0.192,-1.23 0.329,-1.92c0.164,-0.68 0.356,-1.39 0.575,-2.12c0.219,-0.72 0.493,-1.45 0.794,-2.16c0.52,-1.19 1.067,-2.08 1.67,-2.69c0.602,-0.6 1.204,-0.9 1.834,-0.9c0.685,0 1.177,0.27 1.533,0.83c0.356,0.55 0.521,1.37 0.521,2.46zM74.832,36.03c0,-1.1 -0.192,-2.06 -0.521,-2.88c-0.328,-0.81 -0.794,-1.44 -1.423,-1.89c-0.603,-0.46 -1.287,-0.68 -2.108,-0.69c-0.603,0 -1.205,0.13 -1.807,0.39c-0.603,0.25 -1.205,0.63 -1.78,1.12c-0.575,0.5 -1.122,1.12 -1.615,1.84c-0.767,1.11 -1.342,2.29 -1.752,3.52c-0.384,1.24 -0.575,2.51 -0.575,3.79c0,1.04 0.164,1.93 0.492,2.66c0.329,0.74 0.822,1.31 1.452,1.7c0.629,0.39 1.396,0.58 2.299,0.59c0.931,-0.01 1.807,-0.25 2.656,-0.72c0.821,-0.47 1.588,-1.15 2.218,-2.03c0.821,-1.11 1.423,-2.3 1.834,-3.55c0.411,-1.24 0.63,-2.53 0.63,-3.85zM62.32,41.09l-0.438,-0.3c-0.466,0.97 -0.904,1.79 -1.314,2.44c-0.411,0.65 -0.794,1.15 -1.15,1.48c-0.356,0.33 -0.712,0.5 -1.041,0.5c-0.191,-0.01 -0.328,-0.07 -0.438,-0.21c-0.109,-0.13 -0.164,-0.31 -0.164,-0.52c0,-0.29 0.082,-0.76 0.301,-1.41c0.192,-0.66 0.466,-1.49 0.849,-2.52l0.903,-2.58c0.411,-1.07 0.712,-2.01 0.931,-2.83c0.219,-0.82 0.329,-1.53 0.329,-2.13c0,-0.74 -0.192,-1.33 -0.548,-1.75c-0.328,-0.43 -0.821,-0.65 -1.423,-0.66c-0.74,0 -1.424,0.41 -2.136,1.22c-0.684,0.8 -1.396,2.02 -2.053,3.64l0.547,0.24c0.603,-1.4 1.205,-2.43 1.753,-3.13c0.547,-0.69 1.012,-1.03 1.396,-1.03c0.164,0 0.301,0.08 0.41,0.22c0.11,0.13 0.165,0.33 0.165,0.59c0,0.33 -0.082,0.8 -0.274,1.4c-0.164,0.61 -0.411,1.35 -0.739,2.22l-1.178,3.21c-0.355,0.93 -0.629,1.79 -0.848,2.56c-0.192,0.76 -0.301,1.46 -0.301,2.1c0,0.72 0.164,1.28 0.52,1.68c0.328,0.39 0.821,0.59 1.423,0.6c0.849,0 1.616,-0.42 2.355,-1.26c0.767,-0.84 1.478,-2.09 2.163,-3.77zM62.539,23.87c0,-0.27 -0.055,-0.51 -0.164,-0.72c-0.137,-0.21 -0.274,-0.38 -0.493,-0.5c-0.192,-0.13 -0.411,-0.18 -0.657,-0.18c-0.274,0 -0.493,0.05 -0.712,0.18c-0.192,0.12 -0.356,0.29 -0.493,0.5c-0.109,0.21 -0.164,0.45 -0.192,0.72c0.028,0.41 0.137,0.74 0.384,1c0.273,0.26 0.575,0.39 0.958,0.41c0.246,-0.01 0.493,-0.07 0.684,-0.19c0.219,-0.12 0.384,-0.29 0.521,-0.5c0.109,-0.21 0.164,-0.45 0.164,-0.72zM54.462,40.79l-0.52,-0.3c-0.657,1.5 -1.259,2.64 -1.807,3.39c-0.547,0.76 -1.04,1.13 -1.506,1.13c-0.1913,0 -0.3556,-0.07 -0.4651,-0.2c-0.1095,-0.13 -0.1642,-0.32 -0.1642,-0.57c0,-0.17 0,-0.36 0.0547,-0.58c0.0274,-0.23 0.0822,-0.47 0.1917,-0.76l1.7519,-5.53c0.274,-0.88 0.466,-1.63 0.575,-2.27c0.11,-0.64 0.164,-1.15 0.164,-1.51c0,-0.96 -0.219,-1.7 -0.657,-2.21c-0.438,-0.51 -1.04,-0.77 -1.8065,-0.78c-0.8488,0 -1.7249,0.45 -2.6557,1.35c-0.9309,0.9 -1.9439,2.24 -3.0116,4.02l3.696,-14.38l-4.9281,0.64l-0.1916,0.8c0.1643,-0.01 0.3012,-0.03 0.4107,-0.04c0.1369,-0.02 0.2464,-0.03 0.3559,-0.03c0.4928,0 0.8487,0.05 1.0677,0.17c0.2464,0.11 0.356,0.33 0.356,0.64c0,0.13 -0.0274,0.26 -0.0548,0.39c-0.0274,0.13 -0.0548,0.26 -0.0821,0.38l-5.4209,21.17h2.1902c0.5476,-2.36 1.1499,-4.42 1.807,-6.2c0.6571,-1.76 1.3416,-3.23 2.0534,-4.41c0.6844,-1.17 1.3963,-2.06 2.0807,-2.64c0.6845,-0.6 1.3142,-0.89 1.8891,-0.89c0.3012,0 0.5476,0.11 0.7116,0.32c0.165,0.22 0.247,0.52 0.247,0.92c0,0.24 -0.028,0.56 -0.11,0.98c-0.082,0.41 -0.1915,0.9 -0.3832,1.47l-1.7522,5.59c-0.1643,0.51 -0.3011,0.99 -0.4107,1.45c-0.1095,0.47 -0.1642,0.92 -0.1642,1.37c0,0.77 0.1643,1.35 0.4928,1.73c0.3285,0.38 0.7939,0.58 1.451,0.58c0.9305,0 1.7525,-0.43 2.4645,-1.29c0.739,-0.86 1.423,-2.16 2.08,-3.9zM39.3769,32.55c0,-0.33 -0.1094,-0.65 -0.3559,-0.95c-0.219,-0.3 -0.5475,-0.55 -0.9856,-0.73c-0.438,-0.19 -0.9582,-0.29 -1.5605,-0.3c-0.794,0.01 -1.5332,0.19 -2.1629,0.54c-0.6297,0.36 -1.1225,0.83 -1.5058,1.43c-0.3559,0.6 -0.5476,1.27 -0.5476,2.02c0,0.56 0.1095,1.09 0.3012,1.57c0.219,0.49 0.4928,0.98 0.8213,1.47c0.3559,0.47 0.7119,0.99 1.1499,1.54c0.3286,0.44 0.6297,0.85 0.8761,1.25c0.2738,0.4 0.4928,0.81 0.6297,1.22c0.1643,0.42 0.2464,0.87 0.2464,1.36c0,0.51 -0.1369,0.96 -0.3559,1.35c-0.2464,0.39 -0.5749,0.68 -1.0404,0.9c-0.438,0.21 -0.9856,0.32 -1.6153,0.33c-0.6023,-0.01 -1.0677,-0.1 -1.4236,-0.28c-0.3286,-0.18 -0.5202,-0.38 -0.5202,-0.63c0,-0.2 0.0274,-0.39 0.0547,-0.57c0.0274,-0.19 0.0548,-0.35 0.0548,-0.5c0,-0.36 -0.0822,-0.64 -0.2464,-0.85c-0.1643,-0.21 -0.3833,-0.32 -0.6571,-0.33c-0.1642,0 -0.3285,0.06 -0.4928,0.17c-0.1369,0.11 -0.2464,0.26 -0.3559,0.45c-0.0822,0.19 -0.1369,0.41 -0.1369,0.66c0,0.48 0.1369,0.91 0.4381,1.29c0.2737,0.38 0.6844,0.68 1.232,0.89c0.5202,0.21 1.1772,0.32 1.9438,0.33c0.9856,-0.01 1.8617,-0.2 2.5736,-0.58c0.7392,-0.38 1.3141,-0.9 1.7248,-1.57c0.3833,-0.66 0.6023,-1.42 0.6023,-2.27c0,-0.55 -0.0821,-1.09 -0.2738,-1.61c-0.1642,-0.52 -0.438,-1.04 -0.7666,-1.57c-0.3285,-0.53 -0.7118,-1.09 -1.1498,-1.68c-0.356,-0.47 -0.6845,-0.91 -0.9583,-1.3c-0.3011,-0.38 -0.5202,-0.76 -0.7118,-1.11c-0.1643,-0.35 -0.2464,-0.71 -0.2464,-1.08c0,-0.42 0.1095,-0.8 0.3011,-1.13c0.1917,-0.33 0.4655,-0.59 0.8214,-0.78c0.3559,-0.19 0.7666,-0.29 1.232,-0.29c0.4654,0 0.8213,0.09 1.0404,0.26c0.2464,0.16 0.3559,0.35 0.3559,0.58c0,0.09 0,0.2 -0.0274,0.3c0,0.1 -0.0274,0.21 -0.0274,0.33c0,0.27 0.0821,0.48 0.2464,0.64c0.1369,0.15 0.3286,0.23 0.575,0.23c0.3011,0 0.5201,-0.09 0.657,-0.26c0.1643,-0.17 0.2464,-0.43 0.2464,-0.74zM25.8521,33.25c0,0.53 -0.0821,1.23 -0.2737,2.11c-0.1917,0.87 -0.4928,1.86 -0.9035,2.98c-0.4107,1.11 -0.9309,2.3 -1.5879,3.55c-0.6297,1.19 -1.232,2.08 -1.8344,2.69c-0.6023,0.6 -1.2594,0.9 -1.9438,0.9c-0.3559,0 -0.6571,-0.1 -0.9309,-0.29c-0.3011,-0.19 -0.5202,-0.47 -0.6844,-0.82c-0.1369,-0.36 -0.2191,-0.78 -0.2191,-1.27c-0.0273,-0.89 0.1917,-1.98 0.575,-3.27c0.4106,-1.28 1.0404,-2.74 1.8617,-4.37c0.7392,-1.39 1.451,-2.43 2.1629,-3.14c0.7118,-0.69 1.4236,-1.05 2.1355,-1.05c0.4928,0.01 0.9034,0.19 1.1772,0.54c0.3012,0.35 0.4654,0.83 0.4654,1.44zM29.7672,40.45l-0.4928,-0.2c-0.5749,1.66 -1.1225,2.91 -1.6701,3.74c-0.5201,0.83 -0.9856,1.25 -1.4236,1.25c-0.219,0 -0.3833,-0.07 -0.5202,-0.23c-0.1369,-0.15 -0.219,-0.35 -0.219,-0.61c0,-0.3 0.0274,-0.68 0.1095,-1.14c0.0547,-0.45 0.1643,-0.96 0.3011,-1.5l2.6831,-9.75c0.0274,-0.12 0.0548,-0.24 0.0822,-0.36c0,-0.12 0.0273,-0.22 0.0273,-0.31c0,-0.18 -0.1369,-0.32 -0.3559,-0.42c-0.1916,-0.1 -0.5202,-0.15 -0.9309,-0.15c-0.1095,0 -0.1916,0.02 -0.2737,0.06c-0.0548,0.04 -0.1096,0.11 -0.1369,0.21l-0.4928,1.77c-0.1643,-0.7 -0.4655,-1.25 -0.9035,-1.63c-0.4107,-0.38 -0.9582,-0.57 -1.5879,-0.58c-0.5476,0 -1.1773,0.16 -1.8617,0.47c-0.6845,0.31 -1.3689,0.77 -2.0808,1.39c-0.7118,0.62 -1.3963,1.38 -2.0533,2.3c-0.575,0.84 -1.0678,1.68 -1.4511,2.53c-0.4107,0.84 -0.6844,1.65 -0.9035,2.43c-0.1916,0.79 -0.2737,1.51 -0.2737,2.17c0,0.9 0.1369,1.67 0.4106,2.3c0.2738,0.65 0.6845,1.14 1.2047,1.48c0.4928,0.34 1.1225,0.5 1.8069,0.51c1.1499,0 2.1355,-0.39 2.9842,-1.16c0.8487,-0.77 1.588,-1.94 2.1903,-3.5c-0.1643,0.64 -0.2738,1.18 -0.3286,1.62c-0.0821,0.43 -0.1095,0.78 -0.1095,1.03c0,0.65 0.1643,1.16 0.4928,1.5c0.3286,0.34 0.8214,0.51 1.4511,0.51c0.9034,0 1.7248,-0.48 2.464,-1.44c0.7392,-0.97 1.3689,-2.39 1.8617,-4.29zM20.1849,24.03c0,-0.39 -0.1369,-0.75 -0.4107,-1.06c-0.2464,-0.32 -0.6297,-0.57 -1.0951,-0.76c-0.4654,-0.18 -1.013,-0.28 -1.6153,-0.28c-1.013,0 -1.9165,0.26 -2.6831,0.79c-0.7939,0.53 -1.4784,1.33 -2.1081,2.4c-0.6023,1.06 -1.1499,2.4 -1.6701,4.01l-0.7666,2.44h-2.8199l-0.1369,0.81h2.8199l-3.5865,16.27c-0.2738,1.24 -0.5202,2.3 -0.7392,3.12c-0.2464,0.85 -0.4928,1.48 -0.794,1.92c-0.3011,0.41 -0.6844,0.63 -1.1498,0.63c-0.3012,0 -0.5202,-0.08 -0.6571,-0.19c-0.1369,-0.14 -0.2464,-0.3 -0.3286,-0.52c-0.0547,-0.19 -0.1095,-0.41 -0.1916,-0.66c-0.0821,-0.24 -0.219,-0.44 -0.3833,-0.57c-0.1643,-0.17 -0.3559,-0.22 -0.6023,-0.25c-0.2464,0 -0.438,0.11 -0.5749,0.25c-0.1369,0.16 -0.1917,0.38 -0.1917,0.68c0,0.58 0.219,1.01 0.6297,1.37c0.4107,0.36 1.0404,0.52 1.8617,0.52c0.8487,0 1.5606,-0.19 2.1629,-0.57c0.6023,-0.36 1.1225,-0.96 1.5606,-1.73c0.438,-0.79 0.8213,-1.81 1.2046,-3.01c0.3559,-1.21 0.7118,-2.63 1.0951,-4.29l2.9842,-12.97h3.2033l0.0821,-0.81h-3.0937l0.7118,-3.14c0.4654,-1.95 1.013,-3.4 1.6701,-4.38c0.657,-0.97 1.4236,-1.45 2.2997,-1.45c0.3286,0 0.6024,0.04 0.794,0.11c0.1917,0.08 0.3285,0.19 0.4381,0.32c0.0821,0.13 0.1642,0.29 0.219,0.47c0.0273,0.18 0.0821,0.37 0.1368,0.57c0.0822,0.25 0.2191,0.45 0.356,0.59c0.1642,0.14 0.3559,0.21 0.5749,0.21c0.219,-0.01 0.4107,-0.09 0.5749,-0.25c0.1369,-0.16 0.2191,-0.36 0.2191,-0.59z" fill="black"/></g></g><g id="googleplus logo" data-node-id="1133:4604" clip-path="url(#clip6_1091_3636)"><path id="Vector_24" data-node-id="1133:4605" d="M311.148,31.35h-18.694v5.52h13.248c-0.663,7.8 -7.14,11.11 -13.248,11.11c-7.802,0 -14.647,-6.18 -14.647,-14.79c0,-8.39 6.477,-14.87 14.647,-14.87c6.256,0 10.009,3.98 10.009,3.98l3.901,-4.05c0,0 -5.005,-5.52 -14.058,-5.52c-11.555,0.07 -20.534,9.86 -20.534,20.39c0,10.37 8.39,20.46 20.829,20.46c10.893,0 18.915,-7.51 18.915,-18.55c0,-2.35 -0.368,-3.68 -0.368,-3.68zM326.457,27.38c-7.655,0 -13.175,5.96 -13.175,13.02c0,7.07 5.3,13.18 13.248,13.18c7.14,0 13.028,-5.52 13.028,-13.03c0.073,-8.76 -6.772,-13.17 -13.101,-13.17zM326.53,32.53c3.754,0 7.36,3.02 7.36,7.95c0,4.78 -3.532,7.95 -7.36,7.95c-4.195,0 -7.507,-3.32 -7.507,-7.95c0,-4.57 3.312,-7.95 7.507,-7.95zM355.087,27.38c-7.654,0 -13.174,5.96 -13.174,13.02c0,7.07 5.299,13.18 13.248,13.18c7.139,0 13.027,-5.52 13.027,-13.03c0.074,-8.76 -6.771,-13.17 -13.101,-13.17zM355.161,32.53c3.753,0 7.36,3.02 7.36,7.95c0,4.78 -3.533,7.95 -7.36,7.95c-4.195,0 -7.507,-3.32 -7.507,-7.95c0.073,-4.57 3.312,-7.95 7.507,-7.95zM383.202,27.38c-7.065,0 -12.585,6.18 -12.585,13.1c0,7.87 6.403,13.1 12.438,13.1c3.754,0 5.741,-1.47 7.213,-3.17v2.58c0,4.49 -2.723,7.21 -6.918,7.21c-3.975,0 -6.036,-2.94 -6.698,-4.64l-5.005,2.14c1.767,3.75 5.373,7.73 11.776,7.73c6.992,0 12.365,-4.42 12.365,-13.69v-23.55h-5.52v2.2c-1.693,-1.84 -3.974,-3.01 -7.066,-3.01zM383.718,32.53c3.459,0 6.992,2.94 6.992,7.95c0,5.15 -3.533,7.95 -7.066,7.95c-3.754,0 -7.213,-3.02 -7.213,-7.88c-0.073,-5.08 3.607,-8.02 7.287,-8.02zM420.15,27.3c-6.624,0 -12.218,5.3 -12.218,13.1c0,8.25 6.182,13.18 12.88,13.18c5.52,0 8.979,-3.02 10.966,-5.74l-4.563,-3.02c-1.177,1.84 -3.165,3.61 -6.403,3.61c-3.68,0 -5.373,-1.99 -6.403,-3.98l17.59,-7.29l-0.883,-2.13c-1.766,-4.19 -5.741,-7.73 -10.966,-7.73zM420.37,32.38c2.429,0 4.122,1.25 4.858,2.8l-11.702,4.93c-0.516,-3.83 3.091,-7.73 6.844,-7.73zM399.615,52.77h5.741v-38.57h-5.741zM455.772,33.34h-7.066v-7.07h-5.74v7.07h-7.066v5.74h7.066v7.06h5.74v-7.06h7.066z" fill="black" fill-opacity="0.2"/></g><g id="MIGI_Clothing_logo logo" data-node-id="1133:4609" opacity="0.2" clip-path="url(#clip7_1091_3636)"><g id="Group_3" data-node-id="1133:4610"><path id="Vector_25" data-node-id="1133:4611" d="M562.772,39.08v22.99h57h57v-22.99v-22.99h-57h-57zM581.658,21.36c0.101,0.11 2.001,3.86 4.231,8.33c2.242,4.47 4.129,8.12 4.218,8.12c0.139,0 0.658,-0.99 5.864,-11.34c1.318,-2.61 2.496,-4.82 2.61,-4.91c0.329,-0.24 11.096,-0.23 11.298,0.02c0.102,0.12 0.14,1.39 0.114,4.4l-0.038,4.23l-1.266,0.03c-0.697,0.02 -1.394,0.06 -1.546,0.1l-0.291,0.06v9.44c0,6.66 0.038,9.45 0.139,9.51c0.076,0.04 0.697,0.08 1.381,0.06c0.988,-0.01 1.279,0.02 1.444,0.18c0.177,0.18 0.203,0.67 0.203,3.79c0,2.87 -0.038,3.62 -0.178,3.73c-0.114,0.11 -2.204,0.13 -7.562,0.12l-7.397,-0.04l-0.038,-3.72c-0.025,-2.7 0.013,-3.77 0.114,-3.9c0.127,-0.14 0.507,-0.18 1.735,-0.16c1.204,0.02 1.609,-0.02 1.685,-0.15c0.165,-0.26 0.089,-9.02 -0.089,-9.07c-0.076,-0.02 -0.76,1.22 -1.52,2.75c-3.825,7.77 -6.852,13.74 -6.941,13.74c-0.101,0 -0.418,-0.57 -0.811,-1.45c-0.139,-0.32 -0.443,-0.98 -0.658,-1.46c-0.494,-1.08 -0.963,-2.1 -1.267,-2.79c-0.127,-0.27 -0.418,-0.91 -0.633,-1.39c-0.228,-0.49 -0.545,-1.2 -0.722,-1.58c-0.178,-0.38 -0.482,-1.04 -0.672,-1.46c-0.19,-0.42 -0.468,-1.01 -0.608,-1.33c-0.139,-0.32 -0.456,-1 -0.696,-1.52c-0.241,-0.52 -0.57,-1.27 -0.722,-1.65c-0.165,-0.38 -0.38,-0.81 -0.469,-0.95c-0.089,-0.14 -0.165,-0.34 -0.165,-0.44c0,-0.11 -0.139,-0.34 -0.316,-0.51l-0.317,-0.29v4.7c0,3.94 0.025,4.73 0.19,4.88c0.139,0.14 0.494,0.18 1.571,0.15c1,-0.02 1.444,0.01 1.532,0.13c0.089,0.1 0.114,1.42 0.102,3.81l-0.038,3.66l-7.385,0.04l-7.372,0.02l-0.139,-0.34c-0.076,-0.2 -0.114,-1.61 -0.089,-3.67c0.038,-2.8 0.063,-3.36 0.228,-3.47c0.101,-0.07 0.684,-0.1 1.305,-0.09c0.608,0.01 1.165,-0.04 1.228,-0.1c0.089,-0.09 0.114,-3.51 0.102,-9.88l-0.038,-9.74l-1.394,-0.07c-0.76,-0.03 -1.469,-0.11 -1.545,-0.16c-0.127,-0.08 -0.165,-1.06 -0.165,-4.21c0,-3.77 0.013,-4.11 0.228,-4.23c0.14,-0.09 2.242,-0.14 5.802,-0.14c5.028,0 5.611,0.03 5.763,0.21zM626.105,21.28c0.165,0.1 0.19,0.67 0.19,3.86c0,3.2 -0.025,3.77 -0.19,3.87c-0.101,0.06 -0.734,0.12 -1.406,0.12c-1,0 -1.241,0.04 -1.304,0.21c-0.038,0.11 -0.076,4.43 -0.076,9.6c0,7.32 0.038,9.45 0.164,9.61c0.114,0.17 0.406,0.22 1.356,0.24l1.203,0.04v4.24v4.25l-7.131,0.04c-4.776,0.01 -7.208,-0.02 -7.385,-0.11c-0.228,-0.12 -0.241,-0.3 -0.241,-4.09c0,-2.18 0.051,-4.01 0.102,-4.1c0.063,-0.1 0.582,-0.17 1.545,-0.19l1.457,-0.04v-9.82v-9.81l-1.394,-0.07l-1.393,-0.06l-0.038,-3.75c-0.025,-3.03 0,-3.77 0.139,-3.9c0.114,-0.09 1.546,-0.15 4.535,-0.18c2.394,-0.01 5.561,-0.04 7.017,-0.05c1.508,-0.02 2.736,0.01 2.85,0.09zM668.336,21.23c0.177,0.06 0.203,0.53 0.203,3.91c0,3.39 -0.026,3.85 -0.203,3.92c-0.114,0.04 -0.76,0.07 -1.457,0.07h-1.254l0.026,9.78l0.038,9.79l1.19,0.04c0.659,0.01 1.28,0.1 1.368,0.18c0.228,0.19 0.241,8.08 0.013,8.31c-0.177,0.18 -14.111,0.23 -14.389,0.05c-0.114,-0.09 -0.152,-1.01 -0.127,-4.22l0.038,-4.1l1.203,-0.03c0.659,-0.02 1.33,-0.06 1.495,-0.1l0.279,-0.06l-0.026,-9.79l-0.038,-9.78l-1.393,-0.07l-1.393,-0.06v-3.86v-3.87l4.433,-0.06c7.853,-0.11 9.791,-0.13 9.994,-0.05zM650.894,23.09l1.685,1.69v4.77v4.78l-0.279,0.06c-0.165,0.04 -2.027,0.05 -4.155,0.04l-3.863,-0.04l-0.038,-2.37c-0.025,-2.34 -0.038,-2.38 -0.317,-2.44c-0.152,-0.04 -1.811,-0.05 -3.698,-0.04l-3.408,0.04l-0.088,0.31c-0.051,0.18 -0.089,4.4 -0.102,9.39c-0.012,6.89 0.026,9.09 0.14,9.21c0.114,0.11 1.102,0.15 3.66,0.15c3.927,0 3.661,0.08 3.661,-0.96c0,-1.07 -0.013,-1.08 -2.09,-1.05c-1.001,0 -1.887,-0.03 -1.951,-0.08c-0.164,-0.1 -0.19,-8.52 -0.038,-8.78c0.152,-0.23 12.439,-0.23 12.591,0.02c0.051,0.07 0.101,3.52 0.101,7.63v7.48l-2.204,2.18l-2.191,2.17h-8.322h-8.322l-2.014,-1.98l-2.027,-1.98v-14.39v-14.4l0.862,-0.83c0.468,-0.44 1.203,-1.14 1.634,-1.54l0.785,-0.72h9.145h9.158z" fill="black"/></g></g><g id="surface1" data-node-id="1133:4616" opacity="0.2"><path id="Vector_26" data-node-id="1133:4617" fill-rule="evenodd" clip-rule="evenodd" d="M792.044,18.75c3.737,-0.97 7.935,0.22 10.559,3.06c2.117,2.18 3.057,5.26 3.061,8.25c0.005,6.23 0.02,12.45 -0.01,18.68c-0.028,2.83 -1.078,5.69 -3.107,7.7c-2.325,2.48 -5.873,3.67 -9.23,3.22c-4.364,-0.46 -8.193,-3.87 -9.215,-8.13c-1.096,-4.61 0.608,-9.62 4.055,-12.83c2.434,-2.4 5.604,-3.91 7.945,-6.41c1.231,-1.31 1.675,-3.8 0.033,-4.97c-1.352,-1.09 -3.634,-0.15 -3.825,1.57c-0.177,1.38 -0.416,2.92 -1.665,3.76c-2.173,1.88 -6.075,0.71 -6.709,-2.15c-0.884,-5.23 2.988,-10.6 8.108,-11.75zM792.316,47.74c-0.397,1.19 0.076,2.67 1.221,3.26c1.399,0.91 3.52,-0.2 3.619,-1.86c0.11,-2.27 0.005,-4.54 0.039,-6.82c-1.916,1.47 -4.307,2.89 -4.879,5.42zM817.342,18.65c6.103,-1.49 12.671,3.3 13.121,9.57c0.071,9.21 0.028,18.43 0.024,27.65c-0.019,2.65 -3.023,4.56 -5.487,3.69c-1.775,-0.5 -3.012,-2.34 -2.865,-4.17c0.012,-8.45 0.006,-16.9 0.012,-25.34c0.043,-1.13 -0.321,-2.45 -1.453,-2.92c-1.608,-0.97 -3.833,0.61 -3.56,2.44c-0.012,8.61 0.003,17.23 -0.006,25.84c0.125,2.29 -1.9,4.41 -4.202,4.36c-2.314,0.08 -4.368,-2.03 -4.263,-4.34c-0.01,-8.77 -0.025,-17.55 0.009,-26.33c0.009,-4.93 3.834,-9.51 8.67,-10.45zM833.633,22c0.273,-3.29 4.75,-4.74 7.033,-2.48c1.475,1.16 1.323,3.16 1.308,4.84c1.667,0.05 3.577,-0.34 5,0.76c2.243,1.48 2.32,5.11 0.195,6.72c-1.437,1.28 -3.476,0.77 -5.214,0.86c0.024,5.36 -0.043,10.72 0.028,16.08c-0.013,1.37 1.199,2.51 2.549,2.53c1.692,0.05 3.376,1.06 3.926,2.72c0.936,2.27 -0.572,5.17 -3.008,5.62c-6.02,0.87 -11.878,-4.42 -11.85,-10.45c0.018,-9.07 -0.043,-18.14 0.033,-27.2zM855.271,21.32c3.012,-2.85 7.697,-3.7 11.526,-2.11c3.985,1.54 6.807,5.65 6.788,9.93c0,3.19 0.019,6.39 -0.005,9.58c0.048,2.07 -1.77,3.96 -3.842,4c-3.167,0.04 -6.332,0 -9.493,0c-0.013,2.18 -0.099,4.36 0.009,6.53c0.187,1.62 2.283,2.67 3.663,1.72c1.91,-1.09 0.812,-3.87 2.498,-5.19c2.172,-2.25 6.469,-1.06 7.079,2.03c0.888,6 -4.34,11.92 -10.379,11.92c-5.753,0.42 -11.139,-4.5 -11.345,-10.24c-0.07,-6.63 -0.003,-13.26 -0.033,-19.89c-0.037,-3.09 1.214,-6.21 3.534,-8.28zM860.303,28.69c-0.2,1.89 -0.049,3.8 -0.08,5.7c1.66,-0.02 3.327,-0.02 4.992,0c-0.11,-2.02 0.33,-4.12 -0.285,-6.07c-0.802,-2.1 -4.168,-1.83 -4.627,0.37zM884.285,18.92c3.7,-1.18 8.021,-0.24 10.804,2.5c2.259,2.1 3.385,5.17 3.434,8.22c0.024,6.36 0.003,12.72 0.003,19.09c-0.003,2.9 -1.139,5.82 -3.245,7.84c-2.913,3.04 -7.678,3.97 -11.578,2.49c-3.458,-1.25 -6.087,-4.41 -6.818,-7.99c-0.674,-3.62 0.19,-7.52 2.458,-10.43c2.202,-2.96 5.462,-4.79 8.284,-7.07c1.375,-1.07 2.641,-2.62 2.44,-4.47c-0.12,-1.71 -2.25,-2.87 -3.701,-1.89c-1.876,0.92 -0.863,3.45 -2.185,4.81c-1.953,2.6 -6.619,1.71 -7.363,-1.5c-0.87,-5.01 2.644,-10.18 7.467,-11.6zM885.818,46.14c-0.875,1.42 -1.233,3.68 0.371,4.72c1.405,1.17 3.743,0 3.84,-1.76c0.077,-2.24 0,-4.49 0.028,-6.74c-1.551,1.09 -3.161,2.2 -4.239,3.78zM901.531,22.65c-0.12,-3.04 3.504,-5.3 6.154,-3.77c2.115,0.93 2.52,3.41 2.324,5.46c1.82,0.04 4.012,-0.34 5.392,1.16c1.971,1.73 1.622,5.29 -0.642,6.61c-1.393,0.98 -3.189,0.48 -4.763,0.6c0.013,5.47 -0.048,10.94 0.028,16.41c0.086,1.57 1.714,2.27 3.094,2.29c2.84,0.2 4.472,3.71 3.094,6.12c-0.875,1.84 -3.113,2.53 -5.013,2.14c-5.282,-0.47 -9.622,-5.29 -9.664,-10.57c-0.038,-8.82 -0.034,-17.64 -0.004,-26.45zM927.083,19.02c2.884,-1.03 6.183,-0.73 8.861,0.74c3.28,1.8 5.5,5.35 5.643,9.09c0.068,3.24 0.04,6.49 0.019,9.73c-0.019,1.99 -1.555,4.02 -3.633,4.12c-3.275,0.08 -6.555,0.01 -9.83,0.03c0.009,2.12 -0.086,4.24 0.033,6.36c0.147,1.96 2.865,3.04 4.202,1.51c1.099,-0.99 0.558,-2.68 1.317,-3.86c1.061,-2.07 3.939,-2.75 5.878,-1.53c1.546,0.84 2.234,2.76 1.99,4.44c-0.242,3.53 -2.314,6.85 -5.371,8.62c-3.413,2.01 -7.939,1.96 -11.3,-0.15c-3.057,-1.85 -5.105,-5.33 -5.114,-8.92c-0.006,-6.68 0.006,-13.36 -0.006,-20.05c-0.08,-4.49 3.072,-8.74 7.311,-10.13zM928.353,28.42c-0.468,1.94 -0.125,3.99 -0.214,5.97c1.665,-0.01 3.331,-0.01 4.998,0c-0.071,-1.97 0.196,-3.97 -0.129,-5.91c-0.721,-2.1 -3.883,-2.09 -4.655,-0.06zM952.95,18.73c1.93,-0.49 4.37,-0.61 5.78,1.09c1.76,1.88 1.22,5.27 -1.06,6.49c-1.18,0.77 -2.9,0.21 -3.89,1.31c-0.71,0.63 -0.72,1.61 -0.71,2.47c0.02,8.44 0.02,16.88 0.01,25.32c0.12,2.21 -1.75,4.28 -3.973,4.32c-2.424,0.28 -4.616,-1.95 -4.493,-4.34c-0.015,-8.75 -0.028,-17.51 0.006,-26.26c0.028,-4.82 3.637,-9.32 8.33,-10.4z" fill="black"/></g><g id="Group_4" data-node-id="1135:4630" opacity="0.2"><path id="Vector_27" data-node-id="1135:4631" fill-rule="evenodd" clip-rule="evenodd" d="M1068.02,73.12h0.55v-3.14h2.54v-0.41h-2.54v-2.33h2.81v-0.43h-3.36zM1074.39,73.12h0.56l0.98,-2.19h2.91l0.98,2.19h0.56l-2.89,-6.36h-0.21zM1084.39,73.12h1.56c0.75,0 1.33,-0.01 1.82,-0.3c0.51,-0.31 0.79,-0.78 0.79,-1.31c0,-0.87 -0.52,-1.45 -1.52,-1.7c0.62,-0.28 0.93,-0.76 0.93,-1.39c0,-0.97 -0.75,-1.61 -2.02,-1.61h-1.56v6.31z" fill="black"/><path id="Vector_28" data-node-id="1135:4632" fill-rule="evenodd" clip-rule="evenodd" d="M1084.92,70.13h1.26c1.1,0 1.78,0.53 1.78,1.32c0,0.89 -0.63,1.26 -1.94,1.26h-1.1z" fill="white"/><path id="Vector_29" data-node-id="1135:4633" fill-rule="evenodd" clip-rule="evenodd" d="M1143.12,66.81v6.32h0.52v-3.03h0.54c0.9,0 2.02,0.36 2.3,1.45c0.13,0.53 0.24,1.06 0.44,1.57h0.6c-0.48,-0.54 -0.43,-1.91 -1.08,-2.61c-0.18,-0.19 -0.55,-0.44 -0.8,-0.57c0.85,-0.26 1.27,-0.78 1.27,-1.55c0,-0.99 -0.75,-1.58 -2.19,-1.58zM1092.87,66.81v6.32h0.53v-3.03h0.55c0.89,0 2,0.36 2.28,1.45c0.14,0.53 0.25,1.06 0.45,1.57h0.6c-0.48,-0.54 -0.42,-1.91 -1.08,-2.61c-0.19,-0.19 -0.55,-0.44 -0.8,-0.57c0.85,-0.26 1.26,-0.78 1.26,-1.55c0,-0.99 -0.75,-1.58 -2.18,-1.58zM1101.43,73.13h0.53v-6.32h-0.53zM1111.81,72.66v-0.54c-0.86,0.44 -1.62,0.66 -2.33,0.66c-0.85,0 -1.61,-0.29 -2.14,-0.82c-0.26,-0.26 -0.48,-0.57 -0.62,-0.91c-0.15,-0.35 -0.22,-0.71 -0.22,-1.09c0,-0.95 0.47,-1.8 1.3,-2.33c0.5,-0.31 1.08,-0.48 1.68,-0.47c0.72,0 1.48,0.23 2.33,0.66v-0.53c-0.8,-0.38 -1.57,-0.59 -2.32,-0.59c-1,0 -1.88,0.33 -2.55,0.97c-0.65,0.6 -1.02,1.42 -1.02,2.28c0,1.12 0.56,2.12 1.53,2.72c0.59,0.38 1.28,0.57 2.04,0.57c0.77,-0.01 1.53,-0.19 2.32,-0.58zM1115.15,73.13h0.57l0.96,-2.2h2.92l0.97,2.2h0.56l-2.88,-6.37h-0.22zM1125.79,73.13h0.58v-5.87h2.45v-0.45h-5.48v0.45h2.45zM1131.9,69.95c0,0.88 0.35,1.7 1.02,2.34c0.63,0.6 1.53,0.95 2.46,0.95c1.18,0 2.22,-0.53 2.88,-1.44c0.39,-0.53 0.6,-1.18 0.59,-1.84c0,-0.87 -0.34,-1.67 -1.02,-2.29c-0.65,-0.63 -1.52,-0.96 -2.45,-0.96c-0.93,0 -1.8,0.33 -2.46,0.96c-0.65,0.6 -1.02,1.42 -1.02,2.28z" fill="black"/><path id="Vector_30" data-node-id="1135:4634" fill-rule="evenodd" clip-rule="evenodd" d="M1132.48,69.96c0,-0.75 0.3,-1.46 0.84,-1.97c0.57,-0.54 1.29,-0.84 2.06,-0.84c0.77,0 1.51,0.31 2.05,0.84c0.55,0.54 0.85,1.22 0.85,1.97c0,0.37 -0.08,0.74 -0.22,1.09c-0.15,0.34 -0.36,0.65 -0.63,0.91c-0.55,0.54 -1.26,0.82 -2.05,0.82c-0.77,0 -1.52,-0.29 -2.06,-0.82c-0.52,-0.53 -0.84,-1.25 -0.84,-2z" fill="white"/><path id="Vector_31" data-node-id="1135:4635" fill-rule="evenodd" clip-rule="evenodd" d="M1155.05,67.71v-0.57c-0.49,-0.27 -0.98,-0.42 -1.51,-0.42c-1.17,0 -1.91,0.73 -1.91,1.68c0,0.91 0.57,1.3 1.64,1.73c0.92,0.36 1.43,0.6 1.43,1.34c0,0.78 -0.54,1.26 -1.39,1.26c-0.54,0 -1.09,-0.23 -1.71,-0.68v0.61c0.58,0.38 1.14,0.56 1.71,0.56c1.15,0 1.96,-0.73 1.96,-1.73c0,-0.43 -0.16,-0.82 -0.43,-1.11c-0.34,-0.36 -0.84,-0.53 -1.37,-0.74c-0.85,-0.34 -1.32,-0.59 -1.32,-1.26c0,-0.66 0.56,-1.19 1.38,-1.19c0.5,0 0.98,0.17 1.52,0.52zM1164.75,73.12h0.52v-6.31h-0.52zM1169.81,73.12h0.54v-5.57l4.9,5.57h0.49v-6.31h-0.54v5.52l-4.84,-5.52h-0.55zM1185.12,72.66v-0.54c-0.86,0.44 -1.62,0.66 -2.34,0.66c-0.83,0 -1.59,-0.29 -2.12,-0.82c-0.27,-0.26 -0.48,-0.57 -0.63,-0.91c-0.14,-0.35 -0.22,-0.72 -0.22,-1.09c0,-0.95 0.48,-1.8 1.3,-2.33c0.5,-0.31 1.08,-0.48 1.67,-0.48c0.74,0 1.48,0.24 2.34,0.67v-0.53c-0.81,-0.38 -1.57,-0.59 -2.31,-0.59c-1,0 -1.88,0.33 -2.57,0.97c-0.65,0.6 -1.02,1.42 -1.02,2.28c0,1.12 0.57,2.12 1.54,2.72c0.59,0.38 1.29,0.57 2.05,0.57c0.75,-0.01 1.53,-0.19 2.31,-0.58zM1066.77,64.51h119v-59.59h-119z" fill="black"/><path id="Vector_32" data-node-id="1135:4636" fill-rule="evenodd" clip-rule="evenodd" d="M1076.11,70.5l1.27,-2.87l1.27,2.87zM1084.92,67.21h0.99c0.94,0 1.52,0.48 1.52,1.24c0,0.75 -0.58,1.25 -1.43,1.25h-1.08zM1143.64,67.24h1.11c1.02,0 1.57,0.43 1.57,1.15c0,0.54 -0.25,0.91 -0.72,1.12c-0.37,0.14 -0.88,0.14 -1.55,0.14h-0.41zM1093.4,67.24h1.12c1.02,0 1.57,0.43 1.57,1.15c0,0.54 -0.25,0.91 -0.74,1.12c-0.37,0.14 -0.87,0.14 -1.53,0.14h-0.42zM1116.88,70.5l1.26,-2.87l1.28,2.87zM1120.73,47.97l5.79,-8.52h7.97l-7.65,8.99l8.14,12.29h-7.53l-5.04,-8.42l-1.68,2.12v6.3h-6.15v-21.28h6.15zM1087.08,60.73l1.07,-21.28h8.56l3.17,13.2l3.72,-13.2h8.2l1.21,21.28h-6.27l-0.27,-16.72l-4.54,16.22h-4.89l-3.79,-16.22l-0.33,16.72zM1070.54,59.47l1.5,-5.04c0,0 2.51,1.64 5.66,1.64c3.5,0 3.58,-2.35 1.71,-2.86c-2.24,-0.6 -3.98,-1.25 -5.33,-2.03c-1.35,-0.79 -3.29,-1.88 -3.29,-5.3c0,-3.42 2.76,-6.62 8.98,-6.62c0,0 3.38,-0.04 6.34,1.3l-1.55,4.93c0,0 -1.96,-1.41 -4.83,-1.41c-2.86,0 -3.6,1.86 -1.7,2.62c1.91,0.76 3.85,1.24 6.18,2.6c2.39,1.4 2.66,3.48 2.56,5.16c-0.1,1.78 -1.09,6.58 -8.8,6.58c-2.54,0 -5.09,-0.56 -7.43,-1.57z" fill="white"/><path id="Vector_33" data-node-id="1135:4637" fill-rule="evenodd" clip-rule="evenodd" d="M1149.16,64.02h-4.74c0.61,-2.89 0.93,-5.82 0.93,-8.77c0,-23.05 -18.82,-41.87 -41.87,-41.87c-15.42,0 -28.96,8.44 -36.22,20.92v-8.19c8.55,-10.58 21.62,-17.39 36.22,-17.39c25.62,0 46.53,20.9 46.53,46.53c0,2.94 -0.29,5.88 -0.85,8.77zM1164.79,31.83l-15.58,5.31c0,0 -1.2,-4.35 -5.33,-9.71l0.5,-0.37l7.74,4.21l0.47,-0.25l-8.19,-6.3l1.65,-1.23l12.14,6.6l0.49,-0.25l-10.44,-8.01l1.93,-1.45zM1169.02,51.91l-16.45,0.24c0,0 0.21,-4.5 -2.07,-10.89l0.6,-0.18l6.06,6.37l0.52,-0.07l-5.85,-8.51l1.94,-0.67l9.52,10.01l0.53,-0.08l-7.44,-10.83l2.27,-0.78zM1067.26,21.89v-11.02l4.86,6.49c0,0 -2.15,1.41 -4.86,4.53zM1156.74,64.02h-4.76c0.35,-1.87 0.63,-4.44 0.54,-7.55l0.63,0.02zM1161.09,64.02h-3.77l-2.79,-9.42l2.05,-0.04zM1164.48,64.02h-2.33l-2.81,-9.51l2.4,-0.03zM1118.99,5.41h16.69l-5.85,8.31c0,0 -3.52,-2.82 -10.02,-4.73l0.2,-0.59l8.71,-1.15l0.25,-0.48l-10.31,-0.28zM1105.09,5.41h11.3l-0.69,2.19c0,0 -4.2,-1.58 -10.98,-1.39v-0.63zM1091.66,5.41h8.72l0.01,0.75c0,0 -4.5,-0.21 -10.89,2.07l-0.19,-0.6zM1086.58,5.41h2.67l-2.15,1.48zM1075.67,5.41h8.29l1.41,4.11c0,0 -4.35,1.2 -9.71,5.33l-0.37,-0.5l4.2,-7.74l-0.25,-0.49l-6.29,8.2l-1.24,-1.64zM1071.08,5.41h2.88l-3.9,5.08l-1.45,-1.93z" fill="white"/><path id="Vector_34" data-node-id="1135:4638" fill-rule="evenodd" clip-rule="evenodd" d="M1154.54,14.03l-13.18,9.87c0,0 -2.47,-3.78 -8.06,-7.59l0.37,-0.52l8.65,1.61l0.38,-0.38l-9.73,-3.46l1.17,-1.68l13.6,2.53l0.38,-0.38l-12.4,-4.4l1.38,-1.98z" fill="white"/></g><g id="fashiontv.default logo" data-node-id="1135:4679" opacity="0.2" clip-path="url(#clip8_1091_3636)"><g id="Group_5" data-node-id="1135:4680"><path id="Vector_35" data-node-id="1135:4681" d="M1293.29,1.02h101.83v76.12h-101.83z" fill="black"/><path id="Vector_36" data-node-id="1135:4682" d="M1395.64,0.5h-102.87v77.15h102.87zM1394.61,76.62h-100.81v-75.09h100.81z" fill="white"/><path id="Vector_37" data-node-id="1135:4683" d="M1357.82,29.31c-1.35,0 -2.42,-1.25 -2.1,-2.66c0.18,-0.77 0.81,-1.41 1.59,-1.59c1.4,-0.32 2.66,0.74 2.66,2.1c0,1.18 -0.97,2.15 -2.15,2.15zM1363.66,3.22h-38.93l-20.73,20.73l24.46,24.46h8.97v-1.61h4.2v-18.75h-4.2v-1.61h4.2v-2.5c0,-4.49 0.89,-7.94 2.63,-10.25c0.81,-1.07 1.81,-1.88 2.96,-2.42c1.1,-0.52 2.35,-0.78 3.71,-0.78c2.37,0 4.76,1.15 4.76,3.73c0,0.55 -0.25,1.07 -0.72,1.45c-0.42,0.33 -0.96,0.53 -1.47,0.53c-1.49,0 -2.42,-1.03 -2.42,-2.69c0,-0.34 0.12,-0.54 0.23,-0.71c0.11,-0.18 0.2,-0.33 0.21,-0.63c-0.1,-0.09 -0.57,-0.18 -1.14,-0.18c-1.22,0 -2.25,0.75 -2.98,2.17c-0.75,1.49 -1.15,3.66 -1.15,6.28v6h4.42v1.61h-4.42v18.75h4.42v1.61h9.28l24.46,-24.45l-20.75,-20.74z" fill="white"/><path id="Vector_38" data-node-id="1135:4684" d="M1392.69,74.91h-96.96v-24.43h96.96z" fill="white"/><path id="Vector_39" data-node-id="1135:4685" d="M1300.13,56.53h11.03v2.72h-7.84v2.9h6.91v2.72h-6.91v5.27h-3.19z" fill="black"/><path id="Vector_40" data-node-id="1135:4686" d="M1317.88,59.29h-4.45v-2.76h12.13v2.76h-4.45v10.85h-3.23z" fill="black"/><path id="Vector_41" data-node-id="1135:4687" d="M1327.21,56.53h3.61l3.88,9.58l3.88,-9.58h3.53l-6.01,13.71h-2.89z" fill="black"/><path id="Vector_42" data-node-id="1135:4688" d="M1343.61,66.56h0.05c1.05,0 1.9,0.86 1.9,1.93c0,1.06 -0.85,1.93 -1.9,1.93h-0.05c-1.05,0 -1.91,-0.87 -1.91,-1.93c0,-1.07 0.86,-1.93 1.91,-1.93z" fill="black"/><path id="Vector_43" data-node-id="1135:4689" d="M1370.2,63.42v-0.04c0,-2.33 -1.57,-4.27 -3.77,-4.27c-2.21,0 -3.74,1.9 -3.74,4.23v0.04c0,2.34 1.57,4.28 3.77,4.28c2.21,0 3.74,-1.9 3.74,-4.24zM1359.82,63.42v-0.04c0,-3.86 2.8,-7.03 6.64,-7.03c3.85,0 6.61,3.13 6.61,6.99v0.04c0,3.87 -2.8,7.04 -6.64,7.04c-3.85,0 -6.61,-3.13 -6.61,-7z" fill="black"/><path id="Vector_44" data-node-id="1135:4690" d="M1375.02,56.58h3.01l3.34,5.75l3.33,-5.75h3.01v13.61h-2.77v-8.89l-3.57,5.82h-0.08l-3.53,-5.76v8.83h-2.74v-13.61z" fill="black"/><path id="Vector_45" data-node-id="1135:4691" d="M1347.38,63.42v-0.04c0,-3.79 2.69,-6.89 6.55,-6.89c2.37,0 3.78,0.84 4.95,2.06l-1.76,2.15c-0.97,-0.94 -1.95,-1.51 -3.21,-1.51c-2.12,0 -3.64,1.87 -3.64,4.16v0.03c0,2.29 1.49,4.19 3.64,4.19c1.44,0 2.31,-0.61 3.3,-1.56l1.76,1.89c-1.29,1.46 -2.73,2.38 -5.15,2.38c-3.69,0 -6.44,-3.03 -6.44,-6.86" fill="black"/></g></g></g></svg>