<svg viewBox="0 0 39 39" x="0" y="0" fill="none" xmlns="http://www.w3.org/2000/svg"><path id="Vector_4" data-node-id="1091:3692" d="M28.861,0.5c0.671,0 1.332,0.16 1.929,0.47c0.597,0.3 1.113,0.75 1.503,1.29l0.188,0.29l5.118,8.53c0.504,0.84 0.806,1.79 0.882,2.76l0.019,0.5v19.94c0,1.06 -0.402,2.09 -1.126,2.87c-0.725,0.78 -1.717,1.26 -2.78,1.34l-0.316,0.01h-29.556c-1.065,0 -2.091,-0.4 -2.872,-1.13c-0.781,-0.72 -1.26,-1.71 -1.339,-2.78l-0.011,-0.31v-19.94c0,-0.99 0.228,-1.95 0.667,-2.83l0.237,-0.43l5.113,-8.53c0.345,-0.58 0.823,-1.06 1.393,-1.42c0.571,-0.35 1.218,-0.56 1.887,-0.62l0.342,-0.01zM34.278,15.28h-29.556v19h29.556zM17.389,4.72h-7.25l-3.8,6.34h11.05zM28.861,4.72h-7.25v6.34h11.05z" fill="black" xmlns="http://www.w3.org/2000/svg"/></svg>