<svg viewBox="0 0 46 39" x="0" y="0" fill="none" xmlns="http://www.w3.org/2000/svg"><path id="Vector (Stroke)" data-node-id="1091:3702" fill-rule="evenodd" clip-rule="evenodd" d="M0.5,0.5h28.12v9.5h8.41l8.47,10.73v12.07h-5.86c-0.34,1.3 -1.01,2.51 -1.96,3.47c-1.41,1.43 -3.32,2.23 -5.3,2.23c-1.99,0 -3.9,-0.8 -5.31,-2.23c-0.95,-0.96 -1.62,-2.17 -1.96,-3.47h-6.1c-0.33,1.3 -1,2.51 -1.96,3.47c-1.4,1.43 -3.31,2.23 -5.3,2.23c-1.99,0 -3.9,-0.8 -5.3,-2.23c-0.96,-0.96 -1.63,-2.17 -1.96,-3.47h-3.99zM4.49,29c0.33,-1.3 1,-2.51 1.96,-3.47c1.4,-1.43 3.31,-2.23 5.3,-2.23c1.99,0 3.9,0.8 5.3,2.23c0.96,0.96 1.63,2.17 1.96,3.47h5.87v-24.7h-20.63v24.7zM28.62,24.32c1.14,-0.66 2.43,-1.02 3.76,-1.02c1.98,0 3.89,0.8 5.3,2.23c0.95,0.96 1.62,2.17 1.96,3.47h2.11v-6.93l-6.53,-8.27h-6.6zM11.75,27.1c-0.99,0 -1.95,0.4 -2.65,1.11c-0.7,0.72 -1.1,1.68 -1.1,2.69c0,1.01 0.4,1.97 1.1,2.69c0.7,0.71 1.66,1.11 2.65,1.11c0.99,0 1.95,-0.4 2.65,-1.11c0.7,-0.72 1.1,-1.68 1.1,-2.69c0,-1.01 -0.4,-1.97 -1.1,-2.69c-0.7,-0.71 -1.66,-1.11 -2.65,-1.11zM32.38,27.1c-1,0 -1.95,0.4 -2.66,1.11c-0.7,0.72 -1.1,1.68 -1.1,2.69c0,1.01 0.4,1.97 1.1,2.69c0.71,0.71 1.66,1.11 2.66,1.11c0.99,0 1.94,-0.4 2.65,-1.11c0.7,-0.72 1.09,-1.68 1.09,-2.69c0,-1.01 -0.39,-1.97 -1.09,-2.69c-0.71,-0.71 -1.66,-1.11 -2.65,-1.11z" fill="black" xmlns="http://www.w3.org/2000/svg"/></svg>