<svg viewBox="0 0 75.387 81" x="0" y="0" fill="none" xmlns="http://www.w3.org/2000/svg"><g id="Frame 309" data-node-id="1091:5138" xmlns="http://www.w3.org/2000/svg"><path id="Vector_9" data-node-id="1091:5139" d="M71.5475,48.521c1.597,0.903 2.63,2.248 3.099,4.036c0.469,1.788 0.252,3.481 -0.651,5.078l-3.333,5.73c-0.903,1.597 -2.248,2.63 -4.037,3.099c-1.788,0.468 -3.481,0.251 -5.078,-0.652l-13.854,-7.968v15.989c0,1.806 -0.66,3.368 -1.979,4.688c-1.32,1.319 -2.882,1.979 -4.688,1.979h-6.666c-1.806,0 -3.368,-0.66 -4.688,-1.979c-1.319,-1.32 -1.979,-2.882 -1.979,-4.688v-15.989l-13.854,7.968c-1.597,0.903 -3.29,1.12 -5.078,0.652c-1.788,-0.469 -3.134,-1.502 -4.037,-3.099l-3.333,-5.73c-0.903,-1.597 -1.12,-3.29 -0.651,-5.078c0.469,-1.788 1.502,-3.133 3.099,-4.036l13.854,-8.021l-13.854,-8.021c-1.597,-0.903 -2.63,-2.248 -3.099,-4.036c-0.469,-1.788 -0.252,-3.481 0.651,-5.078l3.333,-5.73c0.903,-1.597 2.249,-2.63 4.037,-3.099c1.788,-0.468 3.481,-0.251 5.078,0.652l13.854,7.968v-15.989c0,-1.806 0.66,-3.368 1.979,-4.688c1.32,-1.319 2.882,-1.979 4.688,-1.979h6.666c1.806,0 3.368,0.66 4.688,1.979c1.319,1.32 1.979,2.882 1.979,4.688v15.989l13.854,-7.968c1.597,-0.903 3.29,-1.12 5.078,-0.652c1.789,0.469 3.134,1.502 4.037,3.099l3.333,5.73c0.903,1.597 1.12,3.29 0.651,5.078c-0.469,1.788 -1.502,3.133 -3.099,4.036l-13.854,8.021z" fill="black"/><path id="Vector_10" data-node-id="1091:5140" d="M26.0565,40.658l7.667,7.667l15.333,-16.429" stroke="white" stroke-width="3.28571" stroke-linecap="round" stroke-linejoin="round"/></g></svg>