<svg viewBox="0 0 60.0001 60" x="0" y="0" fill="none" xmlns="http://www.w3.org/2000/svg"><path id="Vector" data-node-id="1091:3661" d="M59.5,30c0.007,0.865 -0.256,1.71 -0.752,2.419c-0.496,0.708 -1.2,1.245 -2.015,1.534l-16.714,6.08l-6.076,16.718c-0.299,0.807 -0.839,1.503 -1.545,1.994c-0.707,0.492 -1.546,0.755 -2.407,0.755c-0.861,0 -1.7,-0.263 -2.407,-0.755c-0.706,-0.491 -1.246,-1.187 -1.545,-1.994l-6.078,-16.736l-16.712,-6.062c-0.807,-0.299 -1.503,-0.839 -1.994,-1.545c-0.492,-0.707 -0.755,-1.547 -0.755,-2.408c0,-0.861 0.263,-1.701 0.755,-2.408c0.491,-0.706 1.187,-1.246 1.994,-1.545l16.73,-6.08l6.06,-16.718c0.299,-0.807 0.839,-1.503 1.545,-1.994c0.707,-0.492 1.546,-0.755 2.407,-0.755c0.861,0 1.7,0.263 2.407,0.755c0.706,0.491 1.246,1.187 1.545,1.994l6.078,16.736l16.712,6.062c0.815,0.289 1.519,0.826 2.015,1.534c0.496,0.709 0.759,1.554 0.752,2.419z" fill="white" xmlns="http://www.w3.org/2000/svg"/></svg>