{
  "accessors": [
    {
      "bufferView": 2,
      "componentType": 5126,
      "count": 29376,
      "max": [
        0.56978440284729,
        2.8081445693969727,
        0.4287416636943817
      ],
      "min": [
        -0.5871948599815369,
        1.6372263431549072,
        -0.2793716788291931
      ],
      "type": "VEC3"
    },
    {
      "bufferView": 2,
      "byteOffset": 352512,
      "componentType": 5126,
      "count": 29376,
      "max": [
        0.999976634979248,
        0.999997079372406,
        0.9999992847442627
      ],
      "min": [
        -0.9999704360961914,
        -0.9999815225601196,
        -0.9999968409538269
      ],
      "type": "VEC3"
    },
    {
      "bufferView": 1,
      "componentType": 5126,
      "count": 29376,
      "max": [
        0.9967381954193115,
        0.9947271347045898
      ],
      "min": [
        0.008644163608551025,
        0.016364220529794693
      ],
      "type": "VEC2"
    },
    {
      "bufferView": 0,
      "componentType": 5125,
      "count": 169536,
      "type": "SCALAR"
    }
  ],
  "asset": {
    "extras": {
      "author": "HarperLaw (https://sketchfab.com/shadow146cloud)",
      "license": "CC-BY-4.0 (http://creativecommons.org/licenses/by/4.0/)",
      "source": "https://sketchfab.com/3d-models/jean-shorts-c89268927d9d42fc8d5cd949e8ff2bc4",
      "title": "Jean Shorts"
    },
    "generator": "Sketchfab-13.74.0",
    "version": "2.0"
  },
  "bufferViews": [
    {
      "buffer": 0,
      "byteLength": 678144,
      "name": "floatBufferViews",
      "target": 34963
    },
    {
      "buffer": 0,
      "byteLength": 235008,
      "byteOffset": 678144,
      "byteStride": 8,
      "name": "floatBufferViews",
      "target": 34962
    },
    {
      "buffer": 0,
      "byteLength": 705024,
      "byteOffset": 913152,
      "byteStride": 12,
      "name": "floatBufferViews",
      "target": 34962
    }
  ],
  "buffers": [
    {
      "byteLength": 1618176,
      "uri": ".bin"
    }
  ],
  "images": [
    {
      "uri": "textures/material0_baseColor.png"
    },
    {
      "uri": "textures/material0_metallicRoughness.png"
    }
  ],
  "materials": [
    {
      "doubleSided": true,
      "name": "material0",
      "pbrMetallicRoughness": {
        "baseColorTexture": {
          "index": 0
        },
        "metallicFactor": 0.0,
        "metallicRoughnessTexture": {
          "index": 1
        }
      }
    }
  ],
  "meshes": [
    {
      "name": "hp_material0_0",
      "primitives": [
        {
          "attributes": {
            "NORMAL": 1,
            "POSITION": 0,
            "TEXCOORD_0": 2
          },
          "indices": 3,
          "material": 0,
          "mode": 4
        }
      ]
    }
  ],
  "nodes": [
    {
      "children": [
        1
      ],
      "matrix": [
        1.0,
        0.0,
        0.0,
        0.0,
        0.0,
        2.220446049250313e-16,
        -1.0,
        0.0,
        0.0,
        1.0,
        2.220446049250313e-16,
        0.0,
        0.0,
        0.0,
        0.0,
        1.0
      ],
      "name": "Sketchfab_model"
    },
    {
      "children": [
        2
      ],
      "matrix": [
        0.009999999776482582,
        0.0,
        0.0,
        0.0,
        0.0,
        0.0,
        0.009999999776482582,
        0.0,
        0.0,
        -0.009999999776482582,
        0.0,
        0.0,
        0.0,
        0.0,
        0.0,
        1.0
      ],
      "name": "907adcd257a84853b47503f9182c7241.fbx"
    },
    {
      "children": [
        3
      ],
      "name": "RootNode"
    },
    {
      "children": [
        4
      ],
      "matrix": [
        -101.50059509276578,
        1.2430237889191635e-14,
        3.952579107984515e-05,
        0.0,
        -6.427138722591472e-12,
        101.50059509277209,
        -1.6536546487060244e-05,
        0.0,
        -4.062156270953549e-05,
        -1.699498838027957e-05,
        -104.31449127196339,
        0.0,
        -0.6567626595497131,
        -7.864779472351074,
        4.554721832275391,
        1.0
      ],
      "name": "hp"
    },
    {
      "mesh": 0,
      "name": "hp_material0_0"
    }
  ],
  "samplers": [
    {
      "magFilter": 9729,
      "minFilter": 9987,
      "wrapS": 10497,
      "wrapT": 10497
    }
  ],
  "scene": 0,
  "scenes": [
    {
      "name": "Sketchfab_Scene",
      "nodes": [
        0
      ]
    }
  ],
  "textures": [
    {
      "sampler": 0,
      "source": 0
    },
    {
      "sampler": 0,
      "source": 1
    }
  ]
}
