{
  "accessors": [
    {
      "bufferView": 2,
      "componentType": 5126,
      "count": 2149,
      "max": [
        2.808809757232666,
        7.2480292320251465,
        0.5843170881271362
      ],
      "min": [
        -2.8090717792510986,
        4.306824207305908,
        -0.8061419725418091
      ],
      "type": "VEC3"
    },
    {
      "bufferView": 2,
      "byteOffset": 25788,
      "componentType": 5126,
      "count": 2149,
      "max": [
        0.997970700263977,
        0.9990155100822449,
        0.9995241165161133
      ],
      "min": [
        -0.9995924830436707,
        -0.99079430103302,
        -0.9999614953994751
      ],
      "type": "VEC3"
    },
    {
      "bufferView": 3,
      "componentType": 5126,
      "count": 2149,
      "max": [
        0.9999906420707703,
        0.9811614751815796,
        0.999631941318512,
        1.0
      ],
      "min": [
        -0.9999991059303284,
        -0.9833942651748657,
        -0.9996675848960876,
        -1.0
      ],
      "type": "VEC4"
    },
    {
      "bufferView": 1,
      "componentType": 5126,
      "count": 2149,
      "max": [
        0.9754872918128967,
        0.99875807762146
      ],
      "min": [
        0.0026885569095611572,
        0.0013850647956132889
      ],
      "type": "VEC2"
    },
    {
      "bufferView": 0,
      "componentType": 5125,
      "count": 11589,
      "type": "SCALAR"
    },
    {
      "bufferView": 2,
      "byteOffset": 51576,
      "componentType": 5126,
      "count": 55,
      "max": [
        0.04576737806200981,
        6.620006561279297,
        0.29766595363616943
      ],
      "min": [
        -0.16132594645023346,
        6.292294502258301,
        0.23247773945331573
      ],
      "type": "VEC3"
    },
    {
      "bufferView": 2,
      "byteOffset": 52236,
      "componentType": 5126,
      "count": 55,
      "max": [
        0.6025917530059814,
        0.6362277269363403,
        0.9963622689247131
      ],
      "min": [
        -0.6490312218666077,
        -0.257010817527771,
        -0.9764567613601685
      ],
      "type": "VEC3"
    },
    {
      "bufferView": 3,
      "byteOffset": 34384,
      "componentType": 5126,
      "count": 55,
      "max": [
        0.973095715045929,
        0.8029478788375854,
        0.616146981716156,
        1.0
      ],
      "min": [
        -0.9704903960227966,
        -0.6721530556678772,
        -0.665668785572052,
        -1.0
      ],
      "type": "VEC4"
    },
    {
      "bufferView": 1,
      "byteOffset": 17192,
      "componentType": 5126,
      "count": 55,
      "max": [
        0.9016879796981812,
        0.34150829911231995
      ],
      "min": [
        0.862836480140686,
        0.0029539205133914948
      ],
      "type": "VEC2"
    },
    {
      "bufferView": 0,
      "byteOffset": 46356,
      "componentType": 5125,
      "count": 210,
      "type": "SCALAR"
    },
    {
      "bufferView": 2,
      "byteOffset": 52896,
      "componentType": 5126,
      "count": 104,
      "max": [
        0.3694913685321808,
        6.783480167388916,
        0.3213571608066559
      ],
      "min": [
        -0.3951394855976105,
        6.282858371734619,
        0.2561294436454773
      ],
      "type": "VEC3"
    },
    {
      "bufferView": 2,
      "byteOffset": 54144,
      "componentType": 5126,
      "count": 104,
      "max": [
        0.7026693224906921,
        0.9860202670097351,
        0.9998060464859009
      ],
      "min": [
        -0.6943337917327881,
        -0.8908143043518066,
        -0.9849576354026794
      ],
      "type": "VEC3"
    },
    {
      "bufferView": 3,
      "byteOffset": 35264,
      "componentType": 5126,
      "count": 104,
      "max": [
        0.9933289289474487,
        0.7628807425498962,
        0.9999744892120361,
        1.0
      ],
      "min": [
        -0.9820490479469299,
        -0.8000507354736328,
        -0.9995063543319702,
        1.0
      ],
      "type": "VEC4"
    },
    {
      "bufferView": 1,
      "byteOffset": 17632,
      "componentType": 5126,
      "count": 104,
      "max": [
        0.9961709380149841,
        0.6187629103660583
      ],
      "min": [
        0.9056733846664429,
        0.001958027482032776
      ],
      "type": "VEC2"
    },
    {
      "bufferView": 0,
      "byteOffset": 47196,
      "componentType": 5125,
      "count": 426,
      "type": "SCALAR"
    },
    {
      "bufferView": 2,
      "byteOffset": 55392,
      "componentType": 5126,
      "count": 130,
      "max": [
        0.024785829707980156,
        6.331861972808838,
        0.3817611634731293
      ],
      "min": [
        -0.026414349675178528,
        6.212815284729004,
        0.3116580843925476
      ],
      "type": "VEC3"
    },
    {
      "bufferView": 2,
      "byteOffset": 56952,
      "componentType": 5126,
      "count": 130,
      "max": [
        0.9923732280731201,
        0.9986698627471924,
        0.9955475330352783
      ],
      "min": [
        -0.9937695860862732,
        -0.8919079303741455,
        -0.9941574931144714
      ],
      "type": "VEC3"
    },
    {
      "bufferView": 3,
      "byteOffset": 36928,
      "componentType": 5126,
      "count": 130,
      "max": [
        0.9273867607116699,
        0.9974712133407593,
        0.8905075788497925,
        1.0
      ],
      "min": [
        -0.9741724133491516,
        -0.9987438321113586,
        -0.9889639019966125,
        1.0
      ],
      "type": "VEC4"
    },
    {
      "bufferView": 1,
      "byteOffset": 18464,
      "componentType": 5126,
      "count": 130,
      "max": [
        0.36846980452537537,
        0.9091423153877258
      ],
      "min": [
        0.01511073112487793,
        0.8289792537689209
      ],
      "type": "VEC2"
    },
    {
      "bufferView": 0,
      "byteOffset": 48900,
      "componentType": 5125,
      "count": 516,
      "type": "SCALAR"
    },
    {
      "bufferView": 2,
      "byteOffset": 58512,
      "componentType": 5126,
      "count": 76,
      "max": [
        0.018653690814971924,
        6.350684642791748,
        0.33779311180114746
      ],
      "min": [
        -0.029423361644148827,
        6.276543140411377,
        0.286540150642395
      ],
      "type": "VEC3"
    },
    {
      "bufferView": 2,
      "byteOffset": 59424,
      "componentType": 5126,
      "count": 76,
      "max": [
        0.9835920929908752,
        0.9658512473106384,
        0.9663789868354797
      ],
      "min": [
        -0.9824039936065674,
        -0.8202534914016724,
        -0.8818462491035461
      ],
      "type": "VEC3"
    },
    {
      "bufferView": 3,
      "byteOffset": 39008,
      "componentType": 5126,
      "count": 76,
      "max": [
        0.9937739968299866,
        0.7650565505027771,
        0.9295307993888855,
        1.0
      ],
      "min": [
        -0.8309207558631897,
        -0.8312766551971436,
        -0.9367812275886536,
        1.0
      ],
      "type": "VEC4"
    },
    {
      "bufferView": 1,
      "byteOffset": 19504,
      "componentType": 5126,
      "count": 76,
      "max": [
        0.5507082343101501,
        0.48856621980667114
      ],
      "min": [
        0.01758313924074173,
        0.34592294692993164
      ],
      "type": "VEC2"
    },
    {
      "bufferView": 0,
      "byteOffset": 50964,
      "componentType": 5125,
      "count": 276,
      "type": "SCALAR"
    }
  ],
  "asset": {
    "extras": {
      "author": "Nick Scott (https://sketchfab.com/Nickjjscott)",
      "license": "CC-BY-4.0 (http://creativecommons.org/licenses/by/4.0/)",
      "source": "https://sketchfab.com/3d-models/tommy-hilfiger-jacket-8f0bcadb538549c8a2323d532f24d1e1",
      "title": "Tommy Hilfiger Jacket"
    },
    "generator": "Sketchfab-12.66.0",
    "version": "2.0"
  },
  "bufferViews": [
    {
      "buffer": 0,
      "byteLength": 52068,
      "name": "floatBufferViews",
      "target": 34963
    },
    {
      "buffer": 0,
      "byteLength": 20112,
      "byteOffset": 52068,
      "byteStride": 8,
      "name": "floatBufferViews",
      "target": 34962
    },
    {
      "buffer": 0,
      "byteLength": 60336,
      "byteOffset": 72180,
      "byteStride": 12,
      "name": "floatBufferViews",
      "target": 34962
    },
    {
      "buffer": 0,
      "byteLength": 40224,
      "byteOffset": 132516,
      "byteStride": 16,
      "name": "floatBufferViews",
      "target": 34962
    }
  ],
  "buffers": [
    {
      "byteLength": 172740,
      "uri": "scene.bin"
    }
  ],
  "images": [
    {
      "uri": "textures/Jacket_M_baseColor.png"
    },
    {
      "uri": "textures/Jacket_M_metallicRoughness.png"
    },
    {
      "uri": "textures/Jacket_M_normal.png"
    }
  ],
  "materials": [
    {
      "doubleSided": true,
      "name": "Jacket_M",
      "normalTexture": {
        "index": 2
      },
      "occlusionTexture": {
        "index": 1
      },
      "pbrMetallicRoughness": {
        "baseColorTexture": {
          "index": 0
        },
        "metallicFactor": 0.0,
        "metallicRoughnessTexture": {
          "index": 1
        }
      }
    }
  ],
  "meshes": [
    {
      "name": "jacket_low_Jacket_M_0",
      "primitives": [
        {
          "attributes": {
            "NORMAL": 1,
            "POSITION": 0,
            "TANGENT": 2,
            "TEXCOORD_0": 3
          },
          "indices": 4,
          "material": 0,
          "mode": 4
        }
      ]
    },
    {
      "name": "jacket_flap_low_Jacket_M_0",
      "primitives": [
        {
          "attributes": {
            "NORMAL": 6,
            "POSITION": 5,
            "TANGENT": 7,
            "TEXCOORD_0": 8
          },
          "indices": 9,
          "material": 0,
          "mode": 4
        }
      ]
    },
    {
      "name": "zipper_top_low_Jacket_M_0",
      "primitives": [
        {
          "attributes": {
            "NORMAL": 11,
            "POSITION": 10,
            "TANGENT": 12,
            "TEXCOORD_0": 13
          },
          "indices": 14,
          "material": 0,
          "mode": 4
        }
      ]
    },
    {
      "name": "zipper_pull_01_low_Jacket_M_0",
      "primitives": [
        {
          "attributes": {
            "NORMAL": 16,
            "POSITION": 15,
            "TANGENT": 17,
            "TEXCOORD_0": 18
          },
          "indices": 19,
          "material": 0,
          "mode": 4
        }
      ]
    },
    {
      "name": "zipper_pull_02_low_Jacket_M_0",
      "primitives": [
        {
          "attributes": {
            "NORMAL": 21,
            "POSITION": 20,
            "TANGENT": 22,
            "TEXCOORD_0": 23
          },
          "indices": 24,
          "material": 0,
          "mode": 4
        }
      ]
    }
  ],
  "nodes": [
    {
      "children": [
        1
      ],
      "matrix": [
        1.0,
        0.0,
        0.0,
        0.0,
        0.0,
        2.220446049250313e-16,
        -1.0,
        0.0,
        0.0,
        1.0,
        2.220446049250313e-16,
        0.0,
        0.0,
        0.0,
        0.0,
        1.0
      ],
      "name": "Sketchfab_model"
    },
    {
      "children": [
        2
      ],
      "matrix": [
        1.0,
        0.0,
        0.0,
        0.0,
        0.0,
        0.0,
        1.0,
        0.0,
        0.0,
        -1.0,
        0.0,
        0.0,
        0.0,
        0.0,
        0.0,
        1.0
      ],
      "name": "008dadb8249c4d2abeeef330d01af99c.fbx"
    },
    {
      "children": [
        3
      ],
      "name": "RootNode"
    },
    {
      "children": [
        4,
        6,
        8,
        10,
        12
      ],
      "name": "Jacket_Low"
    },
    {
      "children": [
        5
      ],
      "name": "jacket_low"
    },
    {
      "mesh": 0,
      "name": "jacket_low_Jacket_M_0"
    },
    {
      "children": [
        7
      ],
      "name": "jacket_flap_low"
    },
    {
      "mesh": 1,
      "name": "jacket_flap_low_Jacket_M_0"
    },
    {
      "children": [
        9
      ],
      "name": "zipper_top_low"
    },
    {
      "mesh": 2,
      "name": "zipper_top_low_Jacket_M_0"
    },
    {
      "children": [
        11
      ],
      "name": "zipper_pull_01_low"
    },
    {
      "mesh": 3,
      "name": "zipper_pull_01_low_Jacket_M_0"
    },
    {
      "children": [
        13
      ],
      "name": "zipper_pull_02_low"
    },
    {
      "mesh": 4,
      "name": "zipper_pull_02_low_Jacket_M_0"
    }
  ],
  "samplers": [
    {
      "magFilter": 9729,
      "minFilter": 9987,
      "wrapS": 10497,
      "wrapT": 10497
    }
  ],
  "scene": 0,
  "scenes": [
    {
      "name": "Sketchfab_Scene",
      "nodes": [
        0
      ]
    }
  ],
  "textures": [
    {
      "sampler": 0,
      "source": 0
    },
    {
      "sampler": 0,
      "source": 1
    },
    {
      "sampler": 0,
      "source": 2
    }
  ]
}
