{
  "accessors": [
    {
      "bufferView": 2,
      "componentType": 5126,
      "count": 2038,
      "max": [
        30.91002655029297,
        109.40398406982422,
        13.723731994628906
      ],
      "min": [
        -31.000473022460938,
        10.41016960144043,
        -12.914703369140625
      ],
      "type": "VEC3"
    },
    {
      "bufferView": 2,
      "byteOffset": 24456,
      "componentType": 5126,
      "count": 2038,
      "max": [
        0.9999669194221497,
        0.9917368292808533,
        1.0
      ],
      "min": [
        -0.999509334564209,
        -0.9963375329971313,
        -1.0
      ],
      "type": "VEC3"
    },
    {
      "bufferView": 3,
      "componentType": 5126,
      "count": 2038,
      "max": [
        0.9994282126426697,
        0.994735836982727,
        0.999964714050293,
        1.0
      ],
      "min": [
        -0.9997431039810181,
        -0.9991312623023987,
        -0.9999918937683105,
        -1.0
      ],
      "type": "VEC4"
    },
    {
      "bufferView": 1,
      "componentType": 5126,
      "count": 2038,
      "max": [
        0.9845148324966431,
        0.9765596985816956
      ],
      "min": [
        0.011267654597759247,
        0.017784155905246735
      ],
      "type": "VEC2"
    },
    {
      "bufferView": 0,
      "componentType": 5125,
      "count": 10794,
      "type": "SCALAR"
    }
  ],
  "asset": {
    "extras": {
      "author": "DanlyVostok (https://sketchfab.com/1799danly)",
      "license": "CC-BY-4.0 (http://creativecommons.org/licenses/by/4.0/)",
      "source": "https://sketchfab.com/3d-models/grey-trousers-joggers-4740f4cd5be14976bcc5e7bdcf6eae77",
      "title": "Grey trousers (joggers)"
    },
    "generator": "Sketchfab-16.44.0",
    "version": "2.0"
  },
  "bufferViews": [
    {
      "buffer": 0,
      "byteLength": 43176,
      "name": "floatBufferViews",
      "target": 34963
    },
    {
      "buffer": 0,
      "byteLength": 16304,
      "byteOffset": 43176,
      "byteStride": 8,
      "name": "floatBufferViews",
      "target": 34962
    },
    {
      "buffer": 0,
      "byteLength": 48912,
      "byteOffset": 59480,
      "byteStride": 12,
      "name": "floatBufferViews",
      "target": 34962
    },
    {
      "buffer": 0,
      "byteLength": 32608,
      "byteOffset": 108392,
      "byteStride": 16,
      "name": "floatBufferViews",
      "target": 34962
    }
  ],
  "buffers": [
    {
      "byteLength": 141000,
      "uri": "scene.bin"
    }
  ],
  "extensionsUsed": [
    "KHR_materials_specular"
  ],
  "images": [
    {
      "uri": "textures/Scene_-_Root_baseColor.jpeg"
    },
    {
      "uri": "textures/Scene_-_Root_metallicRoughness.png"
    },
    {
      "uri": "textures/Scene_-_Root_normal.jpeg"
    }
  ],
  "materials": [
    {
      "doubleSided": true,
      "extensions": {
        "KHR_materials_specular": {
          "specularColorFactor": [
            1.0,
            1.0,
            1.0
          ],
          "specularFactor": 0.0
        }
      },
      "name": "Scene_-_Root",
      "normalTexture": {
        "index": 2
      },
      "occlusionTexture": {
        "index": 1
      },
      "pbrMetallicRoughness": {
        "baseColorTexture": {
          "index": 0
        },
        "metallicRoughnessTexture": {
          "index": 1
        }
      }
    }
  ],
  "meshes": [
    {
      "name": "PAnts High ply_0_node007__0",
      "primitives": [
        {
          "attributes": {
            "NORMAL": 1,
            "POSITION": 0,
            "TANGENT": 2,
            "TEXCOORD_0": 3
          },
          "indices": 4,
          "material": 0,
          "mode": 4
        }
      ]
    }
  ],
  "nodes": [
    {
      "children": [
        1
      ],
      "matrix": [
        0.41073697805404663,
        0.0,
        0.0,
        0.0,
        0.0,
        9.120193002011204e-17,
        -0.41073697805404663,
        0.0,
        0.0,
        0.41073697805404663,
        9.120193002011204e-17,
        0.0,
        0.0,
        0.0,
        0.0,
        1.0
      ],
      "name": "Sketchfab_model"
    },
    {
      "children": [
        2
      ],
      "matrix": [
        0.02539999969303608,
        0.0,
        0.0,
        0.0,
        0.0,
        0.0,
        0.02539999969303608,
        0.0,
        0.0,
        -0.02539999969303608,
        0.0,
        0.0,
        0.0,
        0.0,
        0.0,
        1.0
      ],
      "name": "Pants Low Poly Final.fbx"
    },
    {
      "children": [
        3
      ],
      "name": "RootNode"
    },
    {
      "children": [
        4
      ],
      "matrix": [
        0.9955310225486755,
        0.0,
        0.0,
        0.0,
        0.0,
        0.9955310225486745,
        4.351604484653674e-08,
        0.0,
        0.0,
        -4.351604484653674e-08,
        0.9955310225486745,
        0.0,
        0.0,
        0.0,
        0.0,
        1.0
      ],
      "name": "PAnts High ply_0_node007"
    },
    {
      "mesh": 0,
      "name": "PAnts High ply_0_node007__0"
    }
  ],
  "samplers": [
    {
      "magFilter": 9729,
      "minFilter": 9987,
      "wrapS": 10497,
      "wrapT": 10497
    }
  ],
  "scene": 0,
  "scenes": [
    {
      "name": "Sketchfab_Scene",
      "nodes": [
        0
      ]
    }
  ],
  "textures": [
    {
      "sampler": 0,
      "source": 0
    },
    {
      "sampler": 0,
      "source": 1
    },
    {
      "sampler": 0,
      "source": 2
    }
  ]
}
