<svg viewBox="0 0 60 60" x="0" y="0" fill="none" xmlns="http://www.w3.org/2000/svg"><defs><mask id="mask5_1091_3917" style="mask-type:luminance" maskUnits="userSpaceOnUse" x="0" y="0" width="60" height="60" xmlns="http://www.w3.org/2000/svg"><g id="Group_11" data-node-id="1091:4130"><g id="Group_12" data-node-id="1091:4131"><path id="Vector_22" data-node-id="1091:4132" d="M30,57c14.91,0 27,-12.09 27,-27c0,-14.91 -12.09,-27 -27,-27c-14.91,0 -27,12.09 -27,27c0,14.91 12.09,27 27,27z" fill="white" stroke="white" stroke-width="5.4" stroke-linejoin="round"/><path id="Vector_23" data-node-id="1091:4133" d="M30,19.2v21.6M19.2,30h21.6" stroke="black" stroke-width="5.4" stroke-linecap="round" stroke-linejoin="round"/></g></g></mask></defs><g id="Mask group_6" data-node-id="1091:4129" xmlns="http://www.w3.org/2000/svg"><mask id="mask5_1091_3917" style="mask-type:luminance" maskUnits="userSpaceOnUse" x="1280" y="1417" width="60" height="60"><g id="Group_11" data-node-id="1091:4130"><g id="Group_12" data-node-id="1091:4131"><path id="Vector_22" data-node-id="1091:4132" d="M1310 1474C1324.91 1474 1337 1461.91 1337 1447C1337 1432.09 1324.91 1420 1310 1420C1295.09 1420 1283 1432.09 1283 1447C1283 1461.91 1295.09 1474 1310 1474Z" fill="white" stroke="white" stroke-width="5.4" stroke-linejoin="round"/><path id="Vector_23" data-node-id="1091:4133" d="M1310 1436.2V1457.8M1299.2 1447H1320.8" stroke="black" stroke-width="5.4" stroke-linecap="round" stroke-linejoin="round"/></g></g></mask><g mask="url(#mask5_1091_3917)"><path id="Vector_24" data-node-id="1091:4134" d="M-2.4,-2.4h64.8v64.8h-64.8z" fill="white"/></g></g></svg>