<svg viewBox="0 0 60 60" x="0" y="0" fill="none" xmlns="http://www.w3.org/2000/svg"><defs><mask id="mask7_1091_3917" style="mask-type:luminance" maskUnits="userSpaceOnUse" x="0" y="0" width="60" height="60" xmlns="http://www.w3.org/2000/svg"><g id="Group_15" data-node-id="1091:4177"><g id="Group_16" data-node-id="1091:4178"><path id="Vector_30" data-node-id="1091:4179" d="M30,57c14.912,0 27,-12.09 27,-27c0,-14.91 -12.088,-27 -27,-27c-14.912,0 -27,12.09 -27,27c0,14.91 12.088,27 27,27z" fill="white" stroke="white" stroke-width="5.4" stroke-linejoin="round"/><path id="Vector_31" data-node-id="1091:4180" d="M30,19.2v21.6M19.2,30h21.6" stroke="black" stroke-width="5.4" stroke-linecap="round" stroke-linejoin="round"/></g></g></mask></defs><g id="Mask group_8" data-node-id="1091:4176" xmlns="http://www.w3.org/2000/svg"><mask id="mask7_1091_3917" style="mask-type:luminance" maskUnits="userSpaceOnUse" x="845" y="1980" width="60" height="60"><g id="Group_15" data-node-id="1091:4177"><g id="Group_16" data-node-id="1091:4178"><path id="Vector_30" data-node-id="1091:4179" d="M875 2037C889.912 2037 902 2024.91 902 2010C902 1995.09 889.912 1983 875 1983C860.088 1983 848 1995.09 848 2010C848 2024.91 860.088 2037 875 2037Z" fill="white" stroke="white" stroke-width="5.4" stroke-linejoin="round"/><path id="Vector_31" data-node-id="1091:4180" d="M875 1999.2V2020.8M864.2 2010H885.8" stroke="black" stroke-width="5.4" stroke-linecap="round" stroke-linejoin="round"/></g></g></mask><g mask="url(#mask7_1091_3917)"><path id="Vector_32" data-node-id="1091:4181" d="M-2.4,-2.4h64.8v64.8h-64.8z" fill="white"/></g></g></svg>