<svg viewBox="0 0 60 60" x="0" y="0" fill="none" xmlns="http://www.w3.org/2000/svg"><defs><mask id="mask9_1091_3917" style="mask-type:luminance" maskUnits="userSpaceOnUse" x="0" y="0" width="60" height="60" xmlns="http://www.w3.org/2000/svg"><g id="Group_19" data-node-id="1091:4219"><g id="Group_20" data-node-id="1091:4220"><path id="Vector_38" data-node-id="1091:4221" d="M30,57c14.912,0 27,-12.09 27,-27c0,-14.91 -12.088,-27 -27,-27c-14.912,0 -27,12.09 -27,27c0,14.91 12.088,27 27,27z" fill="white" stroke="white" stroke-width="5.4" stroke-linejoin="round"/><path id="Vector_39" data-node-id="1091:4222" d="M30,19.2v21.6M19.2,30h21.6" stroke="black" stroke-width="5.4" stroke-linecap="round" stroke-linejoin="round"/></g></g></mask></defs><g id="Mask group_10" data-node-id="1091:4218" xmlns="http://www.w3.org/2000/svg"><mask id="mask9_1091_3917" style="mask-type:luminance" maskUnits="userSpaceOnUse" x="410" y="2543" width="60" height="60"><g id="Group_19" data-node-id="1091:4219"><g id="Group_20" data-node-id="1091:4220"><path id="Vector_38" data-node-id="1091:4221" d="M440 2600C454.912 2600 467 2587.91 467 2573C467 2558.09 454.912 2546 440 2546C425.088 2546 413 2558.09 413 2573C413 2587.91 425.088 2600 440 2600Z" fill="white" stroke="white" stroke-width="5.4" stroke-linejoin="round"/><path id="Vector_39" data-node-id="1091:4222" d="M440 2562.2V2583.8M429.2 2573H450.8" stroke="black" stroke-width="5.4" stroke-linecap="round" stroke-linejoin="round"/></g></g></mask><g mask="url(#mask9_1091_3917)"><path id="Vector_40" data-node-id="1091:4223" d="M-2.4,-2.4h64.8v64.8h-64.8z" fill="white"/></g></g></svg>