<svg viewBox="0 0 60 60" x="0" y="0" fill="none" xmlns="http://www.w3.org/2000/svg"><defs><mask id="mask6_1091_3917" style="mask-type:luminance" maskUnits="userSpaceOnUse" x="0" y="0" width="60" height="60" xmlns="http://www.w3.org/2000/svg"><g id="Group_13" data-node-id="1091:4156"><g id="Group_14" data-node-id="1091:4157"><path id="Vector_26" data-node-id="1091:4158" d="M30,57c14.912,0 27,-12.09 27,-27c0,-14.91 -12.088,-27 -27,-27c-14.912,0 -27,12.09 -27,27c0,14.91 12.088,27 27,27z" fill="white" stroke="white" stroke-width="5.4" stroke-linejoin="round"/><path id="Vector_27" data-node-id="1091:4159" d="M30,19.2v21.6M19.2,30h21.6" stroke="black" stroke-width="5.4" stroke-linecap="round" stroke-linejoin="round"/></g></g></mask></defs><g id="Mask group_7" data-node-id="1091:4155" xmlns="http://www.w3.org/2000/svg"><mask id="mask6_1091_3917" style="mask-type:luminance" maskUnits="userSpaceOnUse" x="410" y="1980" width="60" height="60"><g id="Group_13" data-node-id="1091:4156"><g id="Group_14" data-node-id="1091:4157"><path id="Vector_26" data-node-id="1091:4158" d="M440 2037C454.912 2037 467 2024.91 467 2010C467 1995.09 454.912 1983 440 1983C425.088 1983 413 1995.09 413 2010C413 2024.91 425.088 2037 440 2037Z" fill="white" stroke="white" stroke-width="5.4" stroke-linejoin="round"/><path id="Vector_27" data-node-id="1091:4159" d="M440 1999.2V2020.8M429.2 2010H450.8" stroke="black" stroke-width="5.4" stroke-linecap="round" stroke-linejoin="round"/></g></g></mask><g mask="url(#mask6_1091_3917)"><path id="Vector_28" data-node-id="1091:4160" d="M-2.4,-2.4h64.8v64.8h-64.8z" fill="white"/></g></g></svg>