<svg viewBox="0 0 60 60" x="0" y="0" fill="none" xmlns="http://www.w3.org/2000/svg"><defs><mask id="mask2_1091_3917" style="mask-type:luminance" maskUnits="userSpaceOnUse" x="0" y="0" width="60" height="60" xmlns="http://www.w3.org/2000/svg"><g id="Group_5" data-node-id="1091:4052"><g id="Group_6" data-node-id="1091:4053"><path id="Vector_10" data-node-id="1091:4054" d="M30,57c14.91,0 27,-12.088 27,-27c0,-14.912 -12.09,-27 -27,-27c-14.91,0 -27,12.088 -27,27c0,14.912 12.09,27 27,27z" fill="white" stroke="white" stroke-width="5.4" stroke-linejoin="round"/><path id="Vector_11" data-node-id="1091:4055" d="M30,19.199v21.6M19.2,29.999h21.6" stroke="black" stroke-width="5.4" stroke-linecap="round" stroke-linejoin="round"/></g></g></mask></defs><g id="Mask group_3" data-node-id="1091:4051" xmlns="http://www.w3.org/2000/svg"><mask id="mask2_1091_3917" style="mask-type:luminance" maskUnits="userSpaceOnUse" x="1280" y="854" width="60" height="60"><g id="Group_5" data-node-id="1091:4052"><g id="Group_6" data-node-id="1091:4053"><path id="Vector_10" data-node-id="1091:4054" d="M1310 911C1324.91 911 1337 898.912 1337 884C1337 869.088 1324.91 857 1310 857C1295.09 857 1283 869.088 1283 884C1283 898.912 1295.09 911 1310 911Z" fill="white" stroke="white" stroke-width="5.4" stroke-linejoin="round"/><path id="Vector_11" data-node-id="1091:4055" d="M1310 873.199V894.799M1299.2 883.999H1320.8" stroke="black" stroke-width="5.4" stroke-linecap="round" stroke-linejoin="round"/></g></g></mask><g mask="url(#mask2_1091_3917)"><path id="Vector_12" data-node-id="1091:4056" d="M-2.4,-2.4h64.8v64.8h-64.8z" fill="white"/></g></g></svg>