<svg viewBox="0 0 60 60" x="0" y="0" fill="none" xmlns="http://www.w3.org/2000/svg"><defs><mask id="mask8_1091_3917" style="mask-type:luminance" maskUnits="userSpaceOnUse" x="0" y="0" width="60" height="60" xmlns="http://www.w3.org/2000/svg"><g id="Group_17" data-node-id="1091:4198"><g id="Group_18" data-node-id="1091:4199"><path id="Vector_34" data-node-id="1091:4200" d="M30,57c14.91,0 27,-12.09 27,-27c0,-14.91 -12.09,-27 -27,-27c-14.91,0 -27,12.09 -27,27c0,14.91 12.09,27 27,27z" fill="white" stroke="white" stroke-width="5.4" stroke-linejoin="round"/><path id="Vector_35" data-node-id="1091:4201" d="M30,19.2v21.6M19.2,30h21.6" stroke="black" stroke-width="5.4" stroke-linecap="round" stroke-linejoin="round"/></g></g></mask></defs><g id="Mask group_9" data-node-id="1091:4197" xmlns="http://www.w3.org/2000/svg"><mask id="mask8_1091_3917" style="mask-type:luminance" maskUnits="userSpaceOnUse" x="1280" y="1980" width="60" height="60"><g id="Group_17" data-node-id="1091:4198"><g id="Group_18" data-node-id="1091:4199"><path id="Vector_34" data-node-id="1091:4200" d="M1310 2037C1324.91 2037 1337 2024.91 1337 2010C1337 1995.09 1324.91 1983 1310 1983C1295.09 1983 1283 1995.09 1283 2010C1283 2024.91 1295.09 2037 1310 2037Z" fill="white" stroke="white" stroke-width="5.4" stroke-linejoin="round"/><path id="Vector_35" data-node-id="1091:4201" d="M1310 1999.2V2020.8M1299.2 2010H1320.8" stroke="black" stroke-width="5.4" stroke-linecap="round" stroke-linejoin="round"/></g></g></mask><g mask="url(#mask8_1091_3917)"><path id="Vector_36" data-node-id="1091:4202" d="M-2.4,-2.4h64.8v64.8h-64.8z" fill="white"/></g></g></svg>