<svg viewBox="0 0 60 60" x="0" y="0" fill="none" xmlns="http://www.w3.org/2000/svg"><defs><mask id="mask3_1091_3917" style="mask-type:luminance" maskUnits="userSpaceOnUse" x="0" y="0" width="60" height="60" xmlns="http://www.w3.org/2000/svg"><g id="Group_7" data-node-id="1091:4078"><g id="Group_8" data-node-id="1091:4079"><path id="Vector_14" data-node-id="1091:4080" d="M30,57c14.912,0 27,-12.09 27,-27c0,-14.91 -12.088,-27 -27,-27c-14.912,0 -27,12.09 -27,27c0,14.91 12.088,27 27,27z" fill="white" stroke="white" stroke-width="5.4" stroke-linejoin="round"/><path id="Vector_15" data-node-id="1091:4081" d="M30,19.2v21.6M19.2,30h21.6" stroke="black" stroke-width="5.4" stroke-linecap="round" stroke-linejoin="round"/></g></g></mask></defs><g id="Mask group_4" data-node-id="1091:4077" xmlns="http://www.w3.org/2000/svg"><mask id="mask3_1091_3917" style="mask-type:luminance" maskUnits="userSpaceOnUse" x="410" y="1417" width="60" height="60"><g id="Group_7" data-node-id="1091:4078"><g id="Group_8" data-node-id="1091:4079"><path id="Vector_14" data-node-id="1091:4080" d="M440 1474C454.912 1474 467 1461.91 467 1447C467 1432.09 454.912 1420 440 1420C425.088 1420 413 1432.09 413 1447C413 1461.91 425.088 1474 440 1474Z" fill="white" stroke="white" stroke-width="5.4" stroke-linejoin="round"/><path id="Vector_15" data-node-id="1091:4081" d="M440 1436.2V1457.8M429.2 1447H450.8" stroke="black" stroke-width="5.4" stroke-linecap="round" stroke-linejoin="round"/></g></g></mask><g mask="url(#mask3_1091_3917)"><path id="Vector_16" data-node-id="1091:4082" d="M-2.4,-2.4h64.8v64.8h-64.8z" fill="white"/></g></g></svg>