<svg viewBox="0 0 60 60" x="0" y="0" fill="none" xmlns="http://www.w3.org/2000/svg"><defs><mask id="mask4_1091_3721" style="mask-type:luminance" maskUnits="userSpaceOnUse" x="0" y="0" width="60" height="60" xmlns="http://www.w3.org/2000/svg"><g id="Group_9" data-node-id="1091:3884"><g id="Group_10" data-node-id="1091:3885"><path id="Vector_18" data-node-id="1091:3886" d="M30,57c14.912,0 27,-12.09 27,-27c0,-14.91 -12.088,-27 -27,-27c-14.912,0 -27,12.09 -27,27c0,14.91 12.088,27 27,27z" fill="white" stroke="white" stroke-width="5.4" stroke-linejoin="round"/><path id="Vector_19" data-node-id="1091:3887" d="M30,19.2v21.6M19.2,30h21.6" stroke="black" stroke-width="5.4" stroke-linecap="round" stroke-linejoin="round"/></g></g></mask></defs><g id="Mask group_5" data-node-id="1091:3883" xmlns="http://www.w3.org/2000/svg"><mask id="mask4_1091_3721" style="mask-type:luminance" maskUnits="userSpaceOnUse" x="845" y="1417" width="60" height="60"><g id="Group_9" data-node-id="1091:3884"><g id="Group_10" data-node-id="1091:3885"><path id="Vector_18" data-node-id="1091:3886" d="M875 1474C889.912 1474 902 1461.91 902 1447C902 1432.09 889.912 1420 875 1420C860.088 1420 848 1432.09 848 1447C848 1461.91 860.088 1474 875 1474Z" fill="white" stroke="white" stroke-width="5.4" stroke-linejoin="round"/><path id="Vector_19" data-node-id="1091:3887" d="M875 1436.2V1457.8M864.2 1447H885.8" stroke="black" stroke-width="5.4" stroke-linecap="round" stroke-linejoin="round"/></g></g></mask><g mask="url(#mask4_1091_3721)"><path id="Vector_20" data-node-id="1091:3888" d="M-2.4,-2.4h64.8v64.8h-64.8z" fill="white"/></g></g></svg>