<svg viewBox="0 0 60 60" x="0" y="0" fill="none" xmlns="http://www.w3.org/2000/svg"><defs><mask id="mask0_1091_3721" style="mask-type:luminance" maskUnits="userSpaceOnUse" x="0" y="0" width="60" height="60" xmlns="http://www.w3.org/2000/svg"><g id="Group" data-node-id="1091:3806"><g id="Group_2" data-node-id="1091:3807"><path id="Vector_2" data-node-id="1091:3808" d="M30,57c14.912,0 27,-12.088 27,-27c0,-14.912 -12.088,-27 -27,-27c-14.912,0 -27,12.088 -27,27c0,14.912 12.088,27 27,27z" fill="white" stroke="white" stroke-width="5.4" stroke-linejoin="round"/><path id="Vector_3" data-node-id="1091:3809" d="M30,19.2v21.6M19.2,30h21.6" stroke="black" stroke-width="5.4" stroke-linecap="round" stroke-linejoin="round"/></g></g></mask></defs><g id="Mask group" data-node-id="1091:3805" xmlns="http://www.w3.org/2000/svg"><mask id="mask0_1091_3721" style="mask-type:luminance" maskUnits="userSpaceOnUse" x="410" y="854" width="60" height="60"><g id="Group" data-node-id="1091:3806"><g id="Group_2" data-node-id="1091:3807"><path id="Vector_2" data-node-id="1091:3808" d="M440 911C454.912 911 467 898.912 467 884C467 869.088 454.912 857 440 857C425.088 857 413 869.088 413 884C413 898.912 425.088 911 440 911Z" fill="white" stroke="white" stroke-width="5.4" stroke-linejoin="round"/><path id="Vector_3" data-node-id="1091:3809" d="M440 873.2V894.8M429.2 884H450.8" stroke="black" stroke-width="5.4" stroke-linecap="round" stroke-linejoin="round"/></g></g></mask><g mask="url(#mask0_1091_3721)"><path id="Vector_4" data-node-id="1091:3810" d="M-2.4,-2.4h64.8v64.8h-64.8z" fill="white"/></g></g></svg>