<svg viewBox="0 0 60 60" x="0" y="0" fill="none" xmlns="http://www.w3.org/2000/svg"><defs><mask id="mask1_1091_3721" style="mask-type:luminance" maskUnits="userSpaceOnUse" x="0" y="0" width="60" height="60" xmlns="http://www.w3.org/2000/svg"><g id="Group_3" data-node-id="1091:3820"><g id="Group_4" data-node-id="1091:3821"><path id="Vector_6" data-node-id="1091:3822" d="M30,57c14.912,0 27,-12.088 27,-27c0,-14.912 -12.088,-27 -27,-27c-14.912,0 -27,12.088 -27,27c0,14.912 12.088,27 27,27z" fill="white" stroke="white" stroke-width="5.4" stroke-linejoin="round"/><path id="Vector_7" data-node-id="1091:3823" d="M30,19.2v21.6M19.2,30h21.6" stroke="black" stroke-width="5.4" stroke-linecap="round" stroke-linejoin="round"/></g></g></mask></defs><g id="Mask group_2" data-node-id="1091:3819" xmlns="http://www.w3.org/2000/svg"><mask id="mask1_1091_3721" style="mask-type:luminance" maskUnits="userSpaceOnUse" x="845" y="854" width="60" height="60"><g id="Group_3" data-node-id="1091:3820"><g id="Group_4" data-node-id="1091:3821"><path id="Vector_6" data-node-id="1091:3822" d="M875 911C889.912 911 902 898.912 902 884C902 869.088 889.912 857 875 857C860.088 857 848 869.088 848 884C848 898.912 860.088 911 875 911Z" fill="white" stroke="white" stroke-width="5.4" stroke-linejoin="round"/><path id="Vector_7" data-node-id="1091:3823" d="M875 873.2V894.8M864.2 884H885.8" stroke="black" stroke-width="5.4" stroke-linecap="round" stroke-linejoin="round"/></g></g></mask><g mask="url(#mask1_1091_3721)"><path id="Vector_8" data-node-id="1091:3824" d="M-2.4,-2.4h64.8v64.8h-64.8z" fill="white"/></g></g></svg>